<svg width="1032" height="472" viewBox="0 0 1032 472" fill="none" xmlns="http://www.w3.org/2000/svg">
<rect width="1032" height="472" fill="white"/>
<path d="M165.406 158.513C154.736 158.513 145.772 156.149 138.514 151.42C131.255 146.691 125.833 140.429 122.247 132.635C118.749 124.753 117 116.127 117 106.757C117 97.3862 118.749 88.8038 122.247 81.0097C125.833 73.128 131.255 66.8226 138.514 62.0936C145.772 57.3645 154.693 55 165.275 55C177.343 55 187.138 57.8462 194.659 63.5385C202.268 69.1433 207.296 76.8499 209.745 86.6583H191.249C189.412 81.3162 186.264 77.2002 181.804 74.3102C177.431 71.3327 171.877 69.8439 165.144 69.8439C158.41 69.8439 152.725 71.464 148.09 74.7043C143.455 77.9446 139.957 82.3671 137.595 87.9719C135.322 93.4891 134.185 99.6631 134.185 106.494C134.185 113.587 135.409 119.937 137.858 125.541C140.307 131.146 143.936 135.569 148.746 138.809C153.556 142.049 159.415 143.669 166.324 143.669C174.895 143.669 181.672 141.349 186.657 136.707C191.73 132.066 194.309 125.498 194.397 117.003H171.703V102.947H210.926V156.806H195.709V144.458C192.385 149.274 188.013 152.821 182.591 155.098C177.256 157.375 171.528 158.513 165.406 158.513Z" fill="black"/>
<path d="M271.981 158.513C261.487 158.513 252.654 156.193 245.483 151.551C238.312 146.822 232.933 140.561 229.348 132.766C225.849 124.885 224.1 116.171 224.1 106.625C224.1 97.0797 225.849 88.4098 229.348 80.6156C232.933 72.8215 238.312 66.6036 245.483 61.9622C252.654 57.3207 261.487 55 271.981 55C282.388 55 291.178 57.3207 298.349 61.9622C305.608 66.6036 310.986 72.8652 314.484 80.747C318.07 88.5411 319.863 97.1672 319.863 106.625C319.863 116.171 318.07 124.885 314.484 132.766C310.986 140.561 305.608 146.822 298.349 151.551C291.178 156.193 282.388 158.513 271.981 158.513ZM271.981 143.538C281.689 143.538 289.21 140.166 294.545 133.423C299.967 126.68 302.678 117.747 302.678 106.625C302.678 95.5909 299.967 86.702 294.545 79.9588C289.21 73.2155 281.689 69.8439 271.981 69.8439C265.597 69.8439 260.088 71.4203 255.453 74.5729C250.818 77.6381 247.276 81.973 244.827 87.5778C242.466 93.095 241.285 99.4442 241.285 106.625C241.285 113.894 242.466 120.331 244.827 125.936C247.276 131.453 250.818 135.788 255.453 138.94C260.088 142.005 265.597 143.538 271.981 143.538Z" fill="black"/>
<path d="M377.194 156.806H358.829L323.016 56.5763H340.332L368.011 138.809L395.69 56.5763H413.006L377.194 156.806Z" fill="black"/>
<path d="M489.511 156.806H423.264V56.5763H489.511V71.5516H439.924V99.1377H484.001V113.982H439.924V141.83H489.511V156.806Z" fill="black"/>
<path d="M579.519 156.806H561.548L545.019 115.952H521.144V156.806H504.484V56.5763H545.806C555.601 56.5763 563.297 59.0284 568.894 63.9326C574.578 68.7492 577.421 76.0617 577.421 85.8701C577.421 92.4382 575.978 98.043 573.092 102.684C570.293 107.238 566.27 110.698 561.023 113.062L579.519 156.806ZM521.144 101.371H543.576C549.26 101.371 553.589 100.101 556.563 97.5613C559.536 94.9341 561.023 91.2121 561.023 86.3955C561.023 81.5789 559.492 77.9008 556.431 75.3611C553.458 72.8215 549.173 71.5516 543.576 71.5516H521.144V101.371Z" fill="black"/>
<path d="M610.178 156.806H593.518V56.5763H613.72L656.091 133.817V56.5763H672.62V156.806H652.549L610.178 79.5647V156.806Z" fill="black"/>
<path d="M708.051 156.806H691.391V56.5763H708.051V156.806Z" fill="black"/>
<path d="M743.665 156.806H727.005V56.5763H747.207L789.579 133.817V56.5763H806.107V156.806H786.037L743.665 79.5647V156.806Z" fill="black"/>
<path d="M869.48 158.513C858.811 158.513 849.847 156.149 842.588 151.42C835.329 146.691 829.907 140.429 826.322 132.635C822.823 124.753 821.074 116.127 821.074 106.757C821.074 97.3862 822.823 88.8038 826.322 81.0097C829.907 73.128 835.329 66.8226 842.588 62.0936C849.847 57.3645 858.767 55 869.349 55C881.418 55 891.213 57.8462 898.734 63.5385C906.342 69.1433 911.371 76.8499 913.819 86.6583H895.323C893.486 81.3162 890.338 77.2002 885.878 74.3102C881.505 71.3327 875.952 69.8439 869.218 69.8439C862.484 69.8439 856.799 71.464 852.164 74.7043C847.529 77.9446 844.031 82.3671 841.67 87.9719C839.396 93.4891 838.259 99.6631 838.259 106.494C838.259 113.587 839.483 119.937 841.932 125.541C844.381 131.146 848.01 135.569 852.82 138.809C857.63 142.049 863.49 143.669 870.398 143.669C878.969 143.669 885.747 141.349 890.732 136.707C895.804 132.066 898.384 125.498 898.471 117.003H875.777V102.947H915V156.806H899.783V144.458C896.46 149.274 892.087 152.821 886.665 155.098C881.33 157.375 875.602 158.513 869.48 158.513Z" fill="black"/>
<path d="M297.616 286.049H280.956V200.795H249.473V185.82H329.362V200.795H297.616V286.049Z" fill="black"/>
<path d="M356.757 286.049H340.097V185.82H356.757V228.381H402.015V185.82H418.675V286.049H402.015V243.225H356.757V286.049Z" fill="black"/>
<path d="M512.622 286.049H494.65L478.121 245.195H454.246V286.049H437.586V185.82H478.909C488.703 185.82 496.399 188.272 501.996 193.176C507.681 197.993 510.523 205.305 510.523 215.113C510.523 221.682 509.08 227.286 506.194 231.928C503.396 236.482 499.373 239.941 494.126 242.305L512.622 286.049ZM454.246 230.614H476.678C482.363 230.614 486.692 229.344 489.665 226.805C492.639 224.177 494.126 220.455 494.126 215.639C494.126 210.822 492.595 207.144 489.534 204.604C486.561 202.065 482.276 200.795 476.678 200.795H454.246V230.614Z" fill="black"/>
<path d="M570.829 287.757C560.334 287.757 551.501 285.436 544.33 280.794C537.159 276.065 531.78 269.804 528.195 262.01C524.697 254.128 522.947 245.414 522.947 235.869C522.947 226.323 524.697 217.653 528.195 209.859C531.78 202.065 537.159 195.847 544.33 191.206C551.501 186.564 560.334 184.243 570.829 184.243C581.236 184.243 590.025 186.564 597.196 191.206C604.455 195.847 609.833 202.109 613.331 209.99C616.917 217.784 618.71 226.411 618.71 235.869C618.71 245.414 616.917 254.128 613.331 262.01C609.833 269.804 604.455 276.065 597.196 280.794C590.025 285.436 581.236 287.757 570.829 287.757ZM570.829 272.781C580.536 272.781 588.057 269.41 593.392 262.666C598.814 255.923 601.525 246.991 601.525 235.869C601.525 224.834 598.814 215.945 593.392 209.202C588.057 202.459 580.536 199.087 570.829 199.087C564.444 199.087 558.935 200.664 554.3 203.816C549.665 206.881 546.123 211.216 543.674 216.821C541.313 222.338 540.132 228.688 540.132 235.869C540.132 243.137 541.313 249.574 543.674 255.179C546.123 260.696 549.665 265.031 554.3 268.184C558.935 271.249 564.444 272.781 570.829 272.781Z" fill="black"/>
<path d="M672.282 287.757C658.989 287.757 649.107 284.473 642.635 277.904C636.163 271.249 632.928 262.053 632.928 250.318V185.82H649.588V250.318C649.588 265.381 657.152 272.913 672.282 272.913C687.324 272.913 694.845 265.381 694.845 250.318V185.82H711.505V250.318C711.505 262.053 708.269 271.249 701.798 277.904C695.414 284.473 685.575 287.757 672.282 287.757Z" fill="black"/>
<path d="M773.887 287.757C763.218 287.757 754.253 285.392 746.995 280.663C739.736 275.934 734.314 269.672 730.728 261.878C727.23 253.997 725.481 245.37 725.481 236C725.481 226.629 727.23 218.047 730.728 210.253C734.314 202.371 739.736 196.066 746.995 191.337C754.253 186.608 763.174 184.243 773.756 184.243C785.824 184.243 795.619 187.09 803.14 192.782C810.749 198.387 815.777 206.093 818.226 215.902H799.73C797.893 210.56 794.745 206.444 790.285 203.554C785.912 200.576 780.359 199.087 773.625 199.087C766.891 199.087 761.206 200.707 756.571 203.948C751.936 207.188 748.438 211.61 746.077 217.215C743.803 222.732 742.666 228.906 742.666 235.737C742.666 242.831 743.89 249.18 746.339 254.785C748.788 260.39 752.417 264.812 757.227 268.052C762.037 271.293 767.896 272.913 774.805 272.913C783.376 272.913 790.153 270.592 795.138 265.951C800.211 261.309 802.791 254.741 802.878 246.246H780.184V232.191H819.407V286.049H804.19V273.701C800.867 278.518 796.494 282.064 791.072 284.341C785.737 286.618 780.009 287.757 773.887 287.757Z" fill="black"/>
<path d="M852.914 286.049H836.254V185.82H852.914V228.381H898.172V185.82H914.832V286.049H898.172V243.225H852.914V286.049Z" fill="black"/>
<path d="M120.804 415.292V315.063H149.533C166.324 315.063 179.18 319.398 188.1 328.068C197.021 336.738 201.481 349.13 201.481 365.243C201.481 381.27 196.977 393.618 187.969 402.287C179.049 410.957 166.193 415.292 149.402 415.292H120.804ZM149.271 400.317C160.377 400.317 169.079 397.69 175.376 392.435C181.672 387.093 184.821 378.029 184.821 365.243C184.821 353.158 181.672 344.269 175.376 338.577C169.166 332.884 160.465 330.038 149.271 330.038H137.464V400.317H149.271Z" fill="black"/>
<path d="M282.875 415.292H216.628V315.063H282.875V330.038H233.288V357.624H277.365V372.468H233.288V400.317H282.875V415.292Z" fill="black"/>
<path d="M335.39 417C328.481 417 321.922 415.862 315.713 413.585C309.591 411.308 304.388 407.673 300.102 402.682C295.905 397.69 293.368 391.297 292.494 383.503H309.416C310.903 390.333 314.051 395.238 318.861 398.215C323.759 401.193 329.356 402.682 335.652 402.682C341.687 402.682 346.497 401.412 350.082 398.872C353.668 396.332 355.461 392.567 355.461 387.575C355.461 383.897 354.324 380.963 352.05 378.774C349.864 376.584 347.109 374.964 343.786 373.913C340.462 372.775 335.871 371.549 330.012 370.235C322.753 368.659 316.85 367.039 312.302 365.375C307.755 363.711 303.863 361.04 300.627 357.362C297.479 353.683 295.905 348.648 295.905 342.255C295.905 336.212 297.391 331.045 300.365 326.754C303.338 322.376 307.405 319.091 312.565 316.902C317.812 314.625 323.759 313.487 330.405 313.487C340.375 313.487 348.946 316.07 356.117 321.237C363.375 326.404 367.792 334.023 369.366 344.094H352.706C351.394 338.577 348.727 334.505 344.704 331.877C340.681 329.163 335.827 327.805 330.143 327.805C324.721 327.805 320.435 328.944 317.287 331.221C314.139 333.497 312.565 336.694 312.565 340.81C312.565 344.05 313.57 346.634 315.582 348.56C317.681 350.487 320.304 351.976 323.453 353.027C326.601 353.99 330.886 355.085 336.308 356.311C344.004 357.975 350.214 359.726 354.936 361.565C359.659 363.317 363.682 366.207 367.005 370.235C370.416 374.176 372.121 379.606 372.121 386.524C372.121 395.894 368.885 403.338 362.413 408.856C356.029 414.285 347.022 417 335.39 417Z" fill="black"/>
<path d="M403.926 415.292H387.266V315.063H403.926V415.292Z" fill="black"/>
<path d="M467.481 417C456.812 417 447.848 414.635 440.589 409.906C433.331 405.177 427.908 398.916 424.323 391.122C420.825 383.24 419.076 374.614 419.076 365.243C419.076 355.873 420.825 347.291 424.323 339.496C427.908 331.615 433.331 325.309 440.589 320.58C447.848 315.851 456.768 313.487 467.35 313.487C479.419 313.487 489.214 316.333 496.735 322.025C504.343 327.63 509.372 335.337 511.821 345.145H493.324C491.488 339.803 488.339 335.687 483.879 332.797C479.506 329.819 473.953 328.331 467.219 328.331C460.485 328.331 454.801 329.951 450.165 333.191C445.53 336.431 442.032 340.854 439.671 346.459C437.397 351.976 436.26 358.15 436.26 364.981C436.26 372.074 437.485 378.423 439.933 384.028C442.382 389.633 446.011 394.055 450.821 397.296C455.631 400.536 461.491 402.156 468.4 402.156C476.97 402.156 483.748 399.835 488.733 395.194C493.805 390.552 496.385 383.984 496.472 375.49H473.778V361.434H513.001V415.292H497.784V402.944C494.461 407.761 490.088 411.308 484.666 413.585C479.331 415.862 473.603 417 467.481 417Z" fill="black"/>
<path d="M546.509 415.292H529.849V315.063H550.051L592.422 392.304V315.063H608.951V415.292H588.88L546.509 338.051V415.292Z" fill="black"/>
</svg>
