<?xml version="1.0" encoding="UTF-8"?><svg id="Layer_2" xmlns="http://www.w3.org/2000/svg" viewBox="0 0 116.44 112.19"><defs><style>.cls-1{fill:#fff;}</style></defs><g id="Layer_1-2"><path class="cls-1" d="m29.14,0c.06.55,5.98,2.99,13.02,4.36,1.61.32,2.82,2.73,4.57,3.17,1.09.27,3.11,6.49,6.43,4.83,2.12-1.06,3.85,4.98,5.93,2.49s4.2-3.15,6.07,18.51c.46,5.28-9.54,28.11-18,24-15.27-7.41-26.85-43.32-21.5-45.71,6.71-3,3.48-11.66,3.48-11.66Z"/><path class="cls-1" d="m104.3,16.09c1.86-1.73-1.74,6.46-1.69,13.63.01,1.64,3.07,4.98-2.2,5.11-3.06.07-1.36,3.41-3.46,7.26-1.13,2.08-4.12,4.76-1.26,6.3s3.92,3.49-16.94,9.63c-5.08,1.49-29.44-3.77-27.1-12.88,4.23-16.44,37.12-34.91,40.53-30.15,4.27,5.98,10.25,2.83,12.12,1.1Z"/><path class="cls-1" d="m52.69,111.85c-2.62,2.09-2.76-6.09-7.35-11.6-1.05-1.26-1.29-5.08-1.54-5.34s-1.11-3.5-1.94-7.81c-.45-2.33.15-6.29-3.03-5.67s-5.24-.21,6.97-18.19c2.97-4.38,25.13-15.79,29.11-7.26,7.18,15.38-6.31,48.62-12.16,49.03-4.99.34-7.94,5.16-10.06,6.85Z"/><path class="cls-1" d="m.85,70.92c-3.19-1.01,3.53-5.68,5.55-12.56.46-1.57,3.5-3.9,3.58-4.26.03-.16,4.23.02,8.18-2.74,5.08-3.55,10.9-10.46,19.24-13.22,5.03-1.67,27.1,12.09,22.23,20.14-8.79,14.52-43.91,21.82-47.5,17.19-3.06-3.95-8.71-3.73-11.28-4.54Z"/><path class="cls-1" d="m116.4,85.54c-.47-.3.19-7.88-2.89-6.84s-.32-1.55-.43-2.36c-.17-1.34,1.31-4.19-.07-4.1-1.39.09.35-3.04-2.82-4.79-2.68-1.48-1.78-3.21-4.34-6.77-1.39-1.92-4.68-4.21-2.05-6.09,2.64-1.89,3.45-3.96-18.01-7.42-5.23-.84-28.73,7.44-25.26,16.18,6.26,15.78,43.08,24.57,44,24.81.43.11,2.86-1.78,5.64-2.35,3.16-.65,6.66,0,6.24-.26Z"/></g></svg>