<?xml version="1.0" encoding="UTF-8"?><svg id="Layer_2" xmlns="http://www.w3.org/2000/svg" viewBox="0 0 41.06 32.88"><defs><style>.cls-1{fill:#1b1464;}</style></defs><g id="Layer_1-2"><path class="cls-1" d="m31.96,9.56c1.15-1.02,1.47-2.78,1.44-4.24-.01-.64-1.01-.64-1,0,.01.73-.06,1.44-.29,2.14-.18.54-.44,1.03-.86,1.4-.2.18-.18.52,0,.71.2.2.5.18.71,0h0Z"/><path class="cls-1" d="m33.18,4.89c-.93-1.36-1.82-2.75-2.78-4.09-.33-.46-.77-.91-1.39-.78s-.95.7-1.44,1.03c-1.17.78-2.67.12-3.83-.32-.56-.21-1.17-.32-1.7.02-.49.32-.68.88-.71,1.44-.04.64.96.64,1,0,.04-.69.49-.73,1.05-.53.52.18,1.01.4,1.54.54.95.25,1.97.31,2.87-.13.45-.22.76-.57,1.13-.89.27-.23.4-.16.61.12.19.24.35.51.52.76l2.26,3.32c.36.53,1.23.03.86-.5h0Z"/><path class="cls-1" d="m21.31,2.53c.24.95.93,1.71,1.65,2.34s1.52,1.14,2.44,1.39c.52.14,1.06.17,1.58.33s.98.45,1.43.75c.91.61,1.89,1.27,2.53,2.16.37.52,1.24.02.86-.5-.59-.82-1.35-1.41-2.16-2.01-.86-.63-1.76-1.25-2.81-1.47-.98-.2-1.8-.36-2.64-.95-.78-.55-1.67-1.35-1.91-2.31-.16-.62-1.12-.36-.96.27h0Z"/><path class="cls-1" d="m25.68,5.91l-4.52-2.71c-1.21-.72-2.42-1.72-3.91-1.57-1.57.16-3.17.81-4.68,1.25-1.7.5-3.4,1.03-5.1,1.55-.61.19-.35,1.15.27.96,2.98-.91,5.96-1.92,8.99-2.65,1.65-.4,2.88.7,4.22,1.5l4.22,2.53c.55.33,1.06-.53.5-.86h0Z"/><path class="cls-1" d="m7.01,5.21c3.04,5.01,9.56,7.62,15.04,5.21.59-.26.08-1.12-.5-.86-4.98,2.19-10.94-.35-13.68-4.85-.33-.55-1.2-.05-.86.5h0Z"/><path class="cls-1" d="m25.05,6.03l-3.52,3.51c-.46.45.25,1.16.71.71l3.52-3.51c.46-.45-.25-1.16-.71-.71h0Z"/><path class="cls-1" d="m24.29,16.84c-.64,1.25-.78,2.75-1.56,3.93s-2.14,2.04-3.08,3.17c-.88,1.06-1.58,2.22-2.32,3.36-.68,1.05-1.49,2.11-2.79,2.34-.63.11-.36,1.07.27.96,1.23-.21,2.13-1.06,2.86-2.02.91-1.21,1.6-2.57,2.56-3.76s2.26-2.06,3.18-3.28,1.06-2.84,1.76-4.2c.29-.57-.57-1.08-.86-.5h0Z"/><path class="cls-1" d="m14.35,30.86c1.98,3.27,6.82,1.87,9.6.63.59-.26.08-1.12-.5-.86-1.43.64-3.01,1.11-4.58,1.21-1.37.09-2.89-.23-3.66-1.49-.33-.55-1.2-.05-.86.5h0Z"/><path class="cls-1" d="m31.46,18.1c-1.2,2.42-2.41,4.83-3.61,7.25-.52,1.05-1.06,2.1-1.71,3.07-.33.5-.73.85-1.12,1.28s-.72.55-1.23.75c-.59.23-.34,1.2.27.96.44-.17.9-.3,1.28-.59.21-.16.34-.37.53-.55s.39-.33.56-.54c.81-1,1.43-2.15,2.01-3.3,1.32-2.6,2.61-5.23,3.91-7.84.29-.57-.58-1.08-.86-.5h0Z"/><path class="cls-1" d="m30.78,16.52c-.21.23-.44.45-.68.65-.12.1-.24.19-.36.27s-.3.15-.4.26c-.09.09,0,.01,0,0-.04-.04-.09-.08-.13-.12-.12-.11-.23-.22-.33-.34-.22-.24-.42-.5-.61-.76-.17-.25-.36-.48-.64-.61-.32-.14-.66-.1-.99-.04-.58.11-1.12.34-1.7.45-.27.05-.42.37-.35.62.08.28.35.4.62.35.59-.11,1.15-.36,1.75-.46.36-.06.41.14.61.4.2.28.42.54.65.79.21.23.44.49.72.64.33.17.66.09.97-.09.59-.35,1.13-.8,1.6-1.31.44-.47-.27-1.18-.71-.71h0Z"/><path class="cls-1" d="m14.63,30.78c.64,0,.64-1,0-1s-.64,1,0,1h0Z"/><path class="cls-1" d="m34.04,20.51c1.27,2.16,1.07,4.75.89,7.15-.05.64.95.64,1,0,.19-2.59.34-5.33-1.03-7.65-.33-.55-1.19-.05-.86.5h0Z"/><path class="cls-1" d="m28.72,11.65c.5,1.68,1.21,3.29,2.13,4.78s2.14,2.82,3.38,4.11c.45.46,1.16-.24.71-.71-1.19-1.22-2.33-2.45-3.22-3.9s-1.55-2.94-2.03-4.54c-.18-.62-1.15-.35-.96.27h0Z"/><path class="cls-1" d="m35.78,28.19c2.28.16,2.64-2.48,3.33-4.15.97-2.35,2.1-4.66,1.92-7.27-.08-1.17-.34-2.31-.53-3.46-.21-1.24-.32-2.49-.56-3.73-.35-1.78-1.04-3.94-2.84-4.74-.58-.26-1.09.6-.5.86,1.68.75,2.16,2.88,2.45,4.53.34,1.95.68,3.95.92,5.91.25,2.08-.28,3.88-1.06,5.79-.39.96-.79,1.91-1.19,2.87-.17.41-.33.83-.51,1.23-.35.77-.48,1.23-1.44,1.16-.64-.05-.64.96,0,1h0Z"/><path class="cls-1" d="m36.78,4.64c-1.89-.33-3.32,1.08-4.22,2.58-.84,1.39-1.61,3.3-3.43,3.57-.27.04-.41.38-.35.62.08.29.35.39.62.35,1.7-.25,2.74-1.77,3.53-3.15.72-1.28,1.81-3.31,3.6-2.99.63.11.9-.85.27-.96h0Z"/><path class="cls-1" d="m36.72,5.38c.07.02.13.04.19.07l-.09-.04c.11.05.22.11.32.19l-.08-.06c.09.07.18.16.25.25l-.06-.08s.04.05.05.07c.06.08.13.15.22.17.09.02.21.01.29-.04s.15-.13.17-.22.02-.21-.04-.29c-.25-.36-.61-.64-1.04-.75-.09-.02-.2-.01-.29.04-.08.05-.15.13-.17.22-.02.1-.02.2.04.29s.13.15.22.17h0Z"/><path class="cls-1" d="m16.53,10.36c-2.45.49-4.84,1.18-7.23,1.92-.99.31-2.05.57-2.95,1.1-.84.5-1.5,1.23-2.18,1.92-.9.9-1.67,1.38-2.92,1.63-.47.09-.81.19-1.03.67-.53,1.17-.08,2.94,1.12,3.48.77.35,1.58.22,2.39.1,1.45-.23,2.73.04,4.17.27,1.89.29,3.81.37,5.71.2,4.09-.37,8.02-1.77,11.41-4.08.53-.36.03-1.23-.5-.86-2.84,1.94-6.05,3.23-9.46,3.77-1.8.28-3.63.35-5.45.19s-3.55-.76-5.33-.57c-.99.11-2.61.73-3.13-.61-.18-.46-.15-1.31.35-1.57.19-.1.62-.09.82-.15,1.35-.4,2.3-1.53,3.26-2.48,1.48-1.46,3.4-1.88,5.33-2.46s3.9-1.12,5.89-1.51c.63-.12.36-1.09-.27-.96h0Z"/><path class="cls-1" d="m16.8,11.34c2.01-.09,4.03-.08,6.05.03.64.04.64-.96,0-1-2.01-.12-4.03-.13-6.05-.03-.64.03-.64,1.03,0,1h0Z"/><path class="cls-1" d="m22.43,10.96c0,.12-.01.24-.02.36,0,.07-.01.14-.02.21.01-.09,0,.06-.01.07-.04.25-.09.49-.16.73-.03.12-.07.23-.11.34-.03.09-.09.25-.12.3s-.09.2-.14.29c-.06.12-.12.23-.19.34-.13.23-.06.56.18.68s.54.06.68-.18c.56-.96.87-2.05.9-3.16,0-.26-.24-.51-.5-.5-.28.01-.49.22-.5.5h0Z"/><path class="cls-1" d="m21.57,13.86c0,.41.24.73.52.99.27.24.55.48.83.71.58.48,1.18.93,1.8,1.37.21.15.57.05.68-.18.14-.26.05-.52-.18-.68-.55-.39-1.01-.73-1.51-1.14-.25-.2-.49-.41-.73-.62-.11-.1-.23-.2-.33-.3-.01-.01-.08-.09-.03-.02-.02-.02-.03-.05-.05-.08-.04-.06,0-.02,0,0-.01-.05-.01-.06,0-.02,0,.04,0,.03,0-.02,0-.26-.23-.51-.5-.5s-.49.22-.5.5h0Z"/></g></svg>