<?xml version="1.0" encoding="UTF-8"?><svg id="Layer_2" xmlns="http://www.w3.org/2000/svg" viewBox="0 0 126.44 82.01"><defs><style>.cls-1{fill:#fff;}</style></defs><g id="Layer_1-2"><g><path class="cls-1" d="m103.66,25.54c-4.43,3.98-2.25,11.8,2.81,14.18,6.6,3.1,13.96-2.5,15.6-8.89,1.92-7.5-1.82-15.47-6.89-20.87-4.76-5.07-11.32-8.56-18.19-9.62-13.84-2.13-27.62,6.04-32.99,18.89-5.69,13.62.12,29.13,10.13,39.07,11.31,11.24,27.68,15.31,43.12,16.43,1.96.14,3.92.23,5.89.29l-.76-2.8c-1.39.76-2.78,1.51-4.17,2.27-1.7.92-.18,3.51,1.51,2.59,1.39-.76,2.78-1.51,4.17-2.27s.68-2.75-.76-2.8c-14.08-.42-28.72-2.78-40.66-10.75-10.44-6.96-18.32-19.22-17.69-32.08.6-12.28,10.05-22.98,21.97-25.65,12.08-2.71,25.4,3.93,30.79,15.02,2.86,5.88,3.23,14.17-3.18,17.85-2.26,1.29-5.32,1.71-7.52.04-1.78-1.36-2.86-3.87-2.54-6.1.16-1.09.67-1.97,1.48-2.7,1.44-1.29-.69-3.41-2.12-2.12h0Z"/><path class="cls-1" d="m18.25,74.39c-3.8,2.4-9.14,5.74-13.45,2.51s.47-9,3.19-11.69c6.59-6.51,16.27-9.22,25.36-8.98,11.55.3,22.5,5,32.71,10.01s20.4,10.71,31.49,13.8c5.98,1.67,12.69,2.94,18.75.98,4.85-1.58,9.21-5.47,10.12-10.65.19-1.09-.66-2.17-1.85-1.85-1.49.41-2.98.82-4.47,1.23-1.86.51-1.07,3.41.8,2.89,1.49-.41,2.98-.82,4.47-1.23l-1.85-1.85c-.88,5.03-5.4,8.2-10.18,9.11-5.9,1.12-12.23-.58-17.83-2.38-11.52-3.71-21.96-9.99-32.91-15.02-10.37-4.76-21.7-8.77-33.29-7.96-9.6.67-19.48,4.48-25.6,12.18C1.92,67.74.08,70.42,0,73.41c-.07,2.61,1.41,4.87,3.55,6.26,5.39,3.5,11.46.31,16.21-2.69,1.63-1.03.12-3.63-1.51-2.59h0Z"/></g></g></svg>