<?xml version="1.0" encoding="UTF-8"?><svg id="Layer_2" xmlns="http://www.w3.org/2000/svg" viewBox="0 0 591.78 602.56"><defs><style>.cls-1{fill:#1e3d94;}</style></defs><g id="Layer_1-2"><path class="cls-1" d="m286.45.5c2.23,2.83,73.96,53.99,65.05,160.31-4.27,50.92-11.92,63.61-15.6,80.51-4.14,19.02-5.15,39-26.78,41.28-18.62,1.96-26.26-13.44-38.05-24.03-27.72-24.91-45.59-65.26-47.56-92.49-4.39-60.73,8.44-66.95,17.23-97.69C258.85,5.04,284.22-2.33,286.45.5Z"/><path class="cls-1" d="m591.44,356.25c-2.52-2.46-44.03-75.42-150.21-83.39-50.61-3.8-50.84-1.67-81.53,2.16-19.12,2.39-36.8,8.26-41.77,27.66,2.65,12.17,11.25,12.85,20.23,25.2,21.12,29.03,103.2,57.99,129.86,63.87,22.3,4.92,30.89-1.85,50.57-3.98,64.88-7.02,75.36-29.06,72.84-31.52Z"/><path class="cls-1" d="m14.83,268.14c27.96-12.25,69.55-60.16,171.96-30.25,49.05,14.33,58.05,22.78,73.88,29.75,17.82,7.85,32.11,28.68,35.12,34.46s-18.39,23.06-31.13,32.5c-29.93,22.2-104.79,22.78-131.87,19.29-60.39-7.79-48.63-7.27-77-22-58.47-30.36-68.92-51.5-40.96-63.75Z"/><path class="cls-1" d="m374.33,601.24c1.23-3.39,53.33-74.44,11.56-172.61-20.01-47.02-31.25-56.68-40.03-71.57-9.89-16.77-30.65-33.46-38.36-30.81s-20.73,20.98-28.61,34.74c-18.52,32.34-22.86,76.25-16.2,102.73,14.85,59.05,28.99,60.94,46.96,87.38,37.04,54.48,63.44,53.53,64.67,50.15Z"/></g></svg>