<?xml version="1.0" encoding="UTF-8"?><svg id="Layer_2" xmlns="http://www.w3.org/2000/svg" viewBox="0 0 934.31 121"><defs><style>.cls-1{stroke-width:28px;}.cls-1,.cls-2,.cls-3,.cls-4,.cls-5,.cls-6,.cls-7,.cls-8,.cls-9,.cls-10,.cls-11,.cls-12,.cls-13{fill:none;stroke:#fff;}.cls-1,.cls-4,.cls-7,.cls-13{stroke-linejoin:round;}.cls-2{stroke-width:23px;}.cls-2,.cls-3,.cls-5,.cls-6,.cls-8,.cls-9,.cls-10,.cls-11,.cls-12{stroke-miterlimit:10;}.cls-3,.cls-4{stroke-width:7px;}.cls-5{stroke-width:26px;}.cls-6{stroke-width:8px;}.cls-7{stroke-width:17px;}.cls-8{stroke-width:10px;}.cls-9,.cls-13{stroke-width:19px;}.cls-10{stroke-width:12px;}.cls-11{stroke-width:14px;}.cls-12{stroke-width:18px;}</style></defs><g id="Layer_1-2"><g><path class="cls-10" d="m736.74,8.69c12.57,33.31,21.57,67.31,28.92,102.13"/><path class="cls-3" d="m749.52,57.75c27.79,1.25,43.79,29.25,51.01,52.96"/><path class="cls-5" d="m87.31,9C58.25,41.29,34.29,76.14,10.77,110.95"/><path class="cls-5" d="m222.68,110.87c1.63-1.87,3.63-3.87,4.63-6.87,2-4,4-8,5-12,14-28,29-55,43.67-83.07"/><path class="cls-2" d="m278.73,17.97c23.02,8.38,46.86,15.61,68.86,26.51,15.81,7.84,29.15,18.58,38.78,33.49,6.6,10.22,11.52,21.46,15.84,32.8"/><path class="cls-12" d="m136.36,111c-2.05-34-15.05-74-51.04-84.86"/><path class="cls-9" d="m485.85,110.85c-10.54-33.85-17.54-69.85-33.79-102.12"/><path class="cls-1" d="m627.34,8.94c4.97,23.06,11.97,45.06,22.97,67.06,1,3,1,7,3,10,4,7,8,12,12,19,0,2,0,4,1.87,5.76"/><path class="cls-11" d="m219.19,8.71c-33.88,26.29-57.88,64.29-79.88,100.29"/><path class="cls-11" d="m630.81,51.5c-18.5,13.5-20.5,39.5-26.03,59.46"/><path class="cls-6" d="m479.74,8.8c-10.61,18.83-20.04,38.63-28.73,58.79-5.09,11.79-13.01,26.04-14.7,39.41"/><path class="cls-6" d="m862.04,111.04c6.04-10.82,12.53-21.64,20.51-31.16,2.66-3.17,6.05-7.59,9.91-9.39,3.34-1.55,7.25.44,10.75-.29"/><path class="cls-6" d="m480.9,83.84c30.58-13.67,61.84-26.69,92.71-34.9,10.29-2.73,24.16-6.99,33.49-5.14,8.05,1.6,9.9,11.33,16.57,14.87"/><path class="cls-6" d="m708.57,110.6c4.74-28.6,4.74-57.6,13.74-85.6,3-5,3-12,8.1-16.37"/><path class="cls-4" d="m534.19,16.62c-6.82,31.93,6.05,63.17,4.61,94.38"/><path class="cls-7" d="m819.37,9.05c-4.85,26.24-8.33,52.75-10.04,79.39-.48,7.52-.82,15.06-1.01,22.6"/><path class="cls-7" d="m872.51,8.76c17.92,23.54,32.03,50,43.41,77.25,3.42,8.19,6.58,16.48,9.49,24.86"/><path class="cls-13" d="m354.28,8.89c-3.69,26.67-9.42,53-14.14,79.5-1.34,7.52-2.6,15.06-3.72,22.63"/><path class="cls-8" d="m341.21,8.84c-20.78,22.81-39.08,48.07-52.72,75.81-4.19,8.52-7.94,17.26-11.17,26.18"/><line class="cls-12" x1=".31" y1="112" x2="934.31" y2="112"/><line class="cls-12" x1=".31" y1="9" x2="934.31" y2="9"/></g></g></svg>