<?xml version="1.0" encoding="UTF-8"?><svg id="Layer_1" xmlns="http://www.w3.org/2000/svg" viewBox="0 0 2407.5 2237.86"><defs><style>.cls-1,.cls-2,.cls-3,.cls-4,.cls-5,.cls-6,.cls-7,.cls-8,.cls-9,.cls-10,.cls-11,.cls-12,.cls-13,.cls-14,.cls-15,.cls-16,.cls-17,.cls-18,.cls-19,.cls-20,.cls-21{fill:none;}.cls-1,.cls-2,.cls-3,.cls-4,.cls-5,.cls-6,.cls-7,.cls-8,.cls-9,.cls-10,.cls-11,.cls-12,.cls-13,.cls-14,.cls-15,.cls-16,.cls-17,.cls-18,.cls-19,.cls-20,.cls-21,.cls-22{stroke:#fff;}.cls-1,.cls-4,.cls-5,.cls-12,.cls-18,.cls-21{stroke-linejoin:round;}.cls-1,.cls-8{stroke-width:28px;}.cls-2{stroke-width:23px;}.cls-2,.cls-3,.cls-6,.cls-7,.cls-8,.cls-9,.cls-10,.cls-11,.cls-13,.cls-14,.cls-15,.cls-16,.cls-17,.cls-19,.cls-20,.cls-22{stroke-miterlimit:10;}.cls-23,.cls-22{fill:#fff;}.cls-3,.cls-4{stroke-width:7px;}.cls-5{stroke-width:21px;}.cls-6{stroke-width:38px;}.cls-24{fill:#1e3d94;}.cls-9{stroke-width:26px;}.cls-10{stroke-width:8px;}.cls-11{stroke-width:11px;}.cls-12{stroke-width:17px;}.cls-13{stroke-width:10px;}.cls-14,.cls-21{stroke-width:19px;}.cls-15{stroke-width:12px;}.cls-16{stroke-width:9px;}.cls-25{fill:#1d2042;}.cls-17{stroke-width:35px;}.cls-18{stroke-width:44px;}.cls-19{stroke-width:14px;}.cls-20{stroke-width:18px;}.cls-22{stroke-width:6px;}</style></defs><g><rect class="cls-25" x="30" y="602.64" width="1110" height="1125"/><path d="m1139.5,603.14v1124H30.5V603.14h1109m1-1H29.5v1126h1111V602.14h0Z"/></g><path class="cls-22" d="m1446.5,1863.14c-108-20-207,11-24,74s12,91,107-49-56-365,95-140,314,95,151,225,50,138-166,129-325-42-216-9,133-55,109,33,233,140-24,88,439,30,510-229,694-456,71-259"/><path class="cls-6" d="m1247.6,550.59c46.41,11.06,300.33,55.44,342.64,221.8"/><polyline class="cls-8" points="1342.21 805.94 1420.56 924.63 1674.56 1117.63"/><g><path class="cls-15" d="m1702,277.23c46.53,40.68,92.36,132.13,117.5,276.91"/><path class="cls-3" d="m1794.71,456.89c31.14.82,51.93,35.82,60.79,96.25"/><path class="cls-9" d="m1520.23,244.28c-124.93,17.48-278.78,70.15-358.73,138.87-45.85,39.41-114.04,137.95-114,140"/><path class="cls-9" d="m1257.5,529.14c98.79-179.88,96.69-244.85,306.59-271.9"/><path class="cls-2" d="m1323.92,417.11c92.13,33.53,106.95,31.72,137.58,135.83"/><path class="cls-20" d="m1182.53,523.82c-1.08-13.2-1.95-85.27-52.02-98.54"/><path class="cls-14" d="m1539.62,551.32c-6.78-32.04-33.45-206.46-140.63-244.33"/><path class="cls-1" d="m1522.08,224.54l43.79,91.04c39.19,6.69,73.48,16.62,96.38,34.11,7.28,52.3,16.79,98.55,33.6,124.97,1.62,21.79,28.66,31.38,13.64,62.49"/><path class="cls-19" d="m1323.63,383.97c-53.77-2.46-107.45,70-139.13,124.17"/><path class="cls-19" d="m1676,450.64c-19.74,15.77-27.07,57.74-29.5,86.5"/><path class="cls-11" d="m1612.8,322.32c-18.67,13.38-42.93,33.14-59.95,68.11"/><path class="cls-10" d="m1498.36,458.42c.06-1.97,5.94-15.05,14-29.67,9.46-17.16,21.95-36.42,31.59-42.3,1.69-1.03,8.63.5,10.46-.1"/><path class="cls-10" d="m1892.36,541.42c.06-1.97,5.94-15.05,14-29.67,9.46-17.16,21.95-36.42,31.59-42.3,1.69-1.03,8.63.5,10.46-.1"/><path class="cls-10" d="m1751.44,543.77c-.55-2.87,1.08-25.57,4.35-51.92,3.84-30.93,9.93-66.88,17.42-81.69,1.31-2.59,8.48-4.98,10.05-7.04"/><polyline class="cls-4" points="1556.59 387.62 1559.03 393.25 1557.75 414.43 1559.94 459.12"/><path class="cls-18" d="m1537.86,2.34c-2.28,85.15-.26,172.21-17.72,250.62"/><path class="cls-17" d="m1536.5,249.14c133.29,22.09,292.24,39.52,310.5,82.5"/><path class="cls-12" d="m1831,316.64c12.91,33.16,25.6,63.49,37,77-6.15,24.46-19.28,104.75-13,163"/><path class="cls-12" d="m1851.78,324.17c10.85,10.4,14.61,33.51,33.31,49.07,44.92,37.37,79.53,106.83,95.91,171.41"/><polyline class="cls-21" points="1385.72 325.88 1402 394.64 1381 513.64 1380 557.64"/><path class="cls-13" d="m1405.91,387.93c-50.28,48.58-82.07,100.94-93.32,157.49"/></g><path class="cls-15" d="m2209.93,1404.83c12.57,33.31,21.57,67.31,28.92,102.13"/><path class="cls-3" d="m2222.71,1453.89c27.79,1.25,43.79,29.25,51.01,52.96"/><path class="cls-9" d="m1560.5,1405.14c-29.06,32.29-53.02,67.14-76.54,101.95"/><path class="cls-9" d="m1695.87,1507.01c1.63-1.87,3.63-3.87,4.63-6.87,2-4,4-8,5-12,14-28,29-55,43.67-83.07"/><path class="cls-2" d="m1751.92,1414.11c23.02,8.38,46.86,15.61,68.86,26.51,15.81,7.84,29.15,18.58,38.78,33.49,6.6,10.22,11.52,21.46,15.84,32.8"/><path class="cls-20" d="m1609.55,1507.14c-2.05-34-15.05-74-51.04-84.86"/><path class="cls-14" d="m1959.04,1506.99c-10.54-33.85-17.54-69.85-33.79-102.12"/><path class="cls-1" d="m2100.53,1405.09c4.97,23.06,11.97,45.06,22.97,67.06,1,3,1,7,3,10,4,7,8,12,12,19,0,2,0,4,1.87,5.76"/><path class="cls-19" d="m1692.38,1404.85c-33.88,26.29-57.88,64.29-79.88,100.29"/><path class="cls-19" d="m2104,1447.64c-18.5,13.5-20.5,39.5-26.03,59.46"/><path class="cls-10" d="m1952.93,1404.94c-10.61,18.83-20.04,38.63-28.73,58.79-5.09,11.79-13.01,26.04-14.7,39.41"/><path class="cls-10" d="m2335.23,1507.18c6.04-10.82,12.53-21.64,20.51-31.16,2.66-3.17,6.05-7.59,9.91-9.39,3.34-1.55,7.25.44,10.75-.29"/><path class="cls-10" d="m1954.09,1479.98c30.58-13.67,61.84-26.69,92.71-34.9,10.29-2.73,24.16-6.99,33.49-5.14,8.05,1.6,9.9,11.33,16.57,14.87"/><path class="cls-10" d="m2181.76,1506.74c4.74-28.6,4.74-57.6,13.74-85.6,3-5,3-12,8.1-16.37"/><path class="cls-4" d="m2007.38,1412.77c-6.82,31.93,6.05,63.17,4.61,94.38"/><path class="cls-12" d="m2292.56,1405.2c-4.85,26.24-8.33,52.75-10.04,79.39-.48,7.52-.82,15.06-1.01,22.6"/><path class="cls-12" d="m2345.7,1404.9c17.92,23.54,32.03,50,43.41,77.25,3.42,8.19,6.58,16.48,9.49,24.86"/><path class="cls-21" d="m1827.47,1405.04c-3.69,26.67-9.42,53-14.14,79.5-1.34,7.52-2.6,15.06-3.72,22.63"/><path class="cls-13" d="m1814.4,1404.98c-20.78,22.81-39.08,48.07-52.72,75.81-4.19,8.52-7.94,17.26-11.17,26.18"/><g><path class="cls-15" d="m657.98,256.16c48.34,44.31,97.42,142.26,127.02,295.99"/><path class="cls-3" d="m760.21,454.89c31.14.82,51.93,35.82,60.79,96.25"/><path class="cls-9" d="m13,521.14c-.04-2.05,68.15-100.59,114-140,79.95-68.71,229.07-166.52,354-184"/><path class="cls-9" d="m517.72,263.84c-48.72,5.3-96.72,13.3-141.72,36.3-22,12-40,28-56,48-14,17-23,35-34,54-20,37-36,74-56,111-1,3-2,6-1.69,10.34"/><path class="cls-2" d="m289.42,415.11c92.13,33.53,106.95,31.72,137.58,135.83"/><path class="cls-20" d="m148.03,521.82c-1.08-13.2-1.95-85.27-52.02-98.54"/><path class="cls-14" d="m505.12,549.32c-6.78-32.04-33.45-206.46-140.63-244.33"/><path class="cls-5" d="m495.16,222.96l36.38,78.42c4.28,9.22,12.79,15.75,22.79,17.56,26.99,4.88,51.07,11.72,69.98,22.06,8.23,4.5,14.05,12.4,15.79,21.61,7.36,39,14.08,81.12,8.86,84.5"/><path class="cls-19" d="m289.13,381.97c-53.77-2.46-107.45,70-139.13,124.17"/><path class="cls-19" d="m644.03,444.27c-20.41,16.92-28.86,60.84-32.03,90.87"/><path class="cls-11" d="m578.3,320.32c-18.67,13.38-42.93,33.14-59.95,68.11"/><path class="cls-10" d="m463.86,456.42c.06-1.97,5.94-15.05,14-29.67,9.46-17.16,21.95-36.42,31.59-42.3,1.69-1.03,8.63.5,10.46-.1"/><path class="cls-10" d="m857.86,539.42c.06-1.97,5.94-15.05,14-29.67,9.46-17.16,21.95-36.42,31.59-42.3,1.69-1.03,8.63.5,10.46-.1"/><path class="cls-10" d="m716.94,541.77c-.55-2.87,1.08-25.57,4.35-51.92,3.84-30.93,9.93-66.88,17.42-81.69,1.31-2.59,8.48-4.98,10.05-7.04"/><polyline class="cls-4" points="522.09 385.62 524.53 391.25 523.25 412.43 525.44 457.12"/><path class="cls-18" d="m499.06.03c-.13,91.55,7.06,185.33-19.01,268.96"/><path class="cls-17" d="m812.5,329.64c-18.26-42.98-177.71-95.91-311-118"/><path class="cls-12" d="m796.5,314.64c12.91,33.16,25.6,63.49,37,77-6.15,24.46-19.28,104.75-13,163"/><path class="cls-12" d="m817.28,322.17c10.85,10.4,14.61,33.51,33.31,49.07,44.92,37.37,79.53,106.83,95.91,171.41"/><path class="cls-21" d="m351.22,323.88c4.78,21.26,9.78,42.26,15.78,64.26v8c-7,39-14,74-20,112-2,16-1,31-1.46,45.7"/><path class="cls-13" d="m371.41,385.93c-43.41,42.22-80.41,93.22-92.45,153.32"/><path class="cls-16" d="m639.54,441.49c40.76,16.33,36.47,66.14,44.22,99.76"/></g><g><path class="cls-24" d="m161.69,1134.1S-7.92,1219.41,24.18,1387.03c32.1,167.62-70.23,159.5,40.68,168.12,34.49,2.68,246.57-145.16,96.83-421.05"/><path class="cls-24" d="m471.22,1723.14s-165.38-161.65-292.96-131.34c-127.58,30.31-175.84-67.13-123.38,38.49,16.31,32.84,258.7,235.03,416.35,92.85"/><path class="cls-24" d="m496.1,1341.95s-246.93,18.97-315.05,129.38c-68.13,110.41-179.86,84.89-58.64,112.45,37.7,8.57,372.19-40.69,373.7-241.83"/></g><rect class="cls-7" x="384" y="775.64" width="574" height="347"/><path class="cls-23" d="m396.19,1110.93c10.02-1.78,17.05-10.72,19.58-20.14,3.28-12.19-.98-24.87-5.77-36.04s-11.75-23.86-10.62-37.01c.48-5.59,2.64-11.27,6.93-15.04,3.95-3.48,10.22-4.84,14.94-2.09,4.16,2.43,6.45,8.78,3.33,12.9-2.57,3.39-8.86,3.79-11.27.02-1.04-1.62-3.63-.12-2.59,1.51,2.57,4.03,7.91,5.07,12.18,3.31,4.85-1.99,6.88-7.19,5.77-12.15-1.18-5.28-5.55-9.12-10.86-9.88-5.93-.85-11.85,1.76-15.63,6.32-8.78,10.56-6.27,25.42-1.79,37.23,4.96,13.07,12.73,25.59,13.46,39.89.33,6.44-1.02,12.78-4.47,18.27-3.18,5.06-8.02,8.93-13.98,9.99-1.9.34-1.09,3.23.8,2.89h0Z"/><path class="cls-23" d="m393.33,784.79c5.7,8.79,19.03,10.6,26.88,3.68,1.45-1.28-.68-3.39-2.12-2.12-6.37,5.61-17.56,4.04-22.17-3.07-1.05-1.61-3.64-.11-2.59,1.51h0Z"/><path class="cls-23" d="m391.46,793.46c5.44,7.26,13.98,11.21,22.92,11.94,4.55.37,9.28-.11,13.63-1.52,2.32-.75,4.6-1.78,6.57-3.22,2.12-1.55,3.69-3.48,5.22-5.58,1.75-2.41,3.61-4.49,6.3-5.86,2.49-1.26,5.26-1.72,8.03-1.48,1.92.17,1.91-2.83,0-3-4.69-.41-9.38,1.15-12.96,4.19-1.91,1.62-3.24,3.72-4.74,5.69s-3.33,3.61-5.54,4.81c-7.64,4.12-17.66,3.95-25.61.86-4.39-1.71-8.4-4.57-11.24-8.35-1.14-1.53-3.75-.03-2.59,1.51h0Z"/><path class="cls-23" d="m391.31,804.9c2.42,5.16,4.83,10.32,7.25,15.48,2.22,4.74,4.4,9.56,4.28,14.9-.22,10.01-6.35,18.78-7.6,28.63-.64,5.02-.07,10.26,2.82,14.55,1.07,1.59,3.67.09,2.59-1.51-5.5-8.17-1.37-18.49,1.66-26.76,1.76-4.8,3.42-9.74,3.54-14.9s-1.7-9.94-3.83-14.55c-2.67-5.8-5.41-11.56-8.12-17.34-.82-1.75-3.41-.23-2.59,1.51h0Z"/><path class="cls-23" d="m408.81,819.05c6.7,3.25,9.94,10.51,15.29,15.33,3.13,2.82,6.81,4.51,11.03,4.89,4.64.42,9.66-.46,14.04-2s8.21-3.98,10.83-7.76c2.42-3.5,3.49-8,2.25-12.14s-4.2-8.18-7.51-10.86-8.13-4.45-12.52-3.02-7.51,5.92-6.32,10.45c1.1,4.18,5.86,6.51,9.79,4.82,1.77-.76.24-3.35-1.51-2.59-2.73,1.18-5.64-1.69-5.51-4.34.18-3.6,3.63-5.86,6.98-5.85,3.92.02,7.21,2.42,9.65,5.3s4.56,6.23,4.48,9.96c-.17,7.98-7.95,12.51-14.83,14.13-3.87.91-8.1,1.46-12.02.53-3.17-.75-5.75-2.59-8-4.89-4.8-4.92-8.2-11.44-14.6-14.55-1.73-.84-3.25,1.75-1.51,2.59h0Z"/><path class="cls-23" d="m934.03,790.09c3.46,11.89-5.1,23.72-15.56,28.63-5.56,2.61-13.18,3.87-18.68.48-4.76-2.93-6.36-9.72-3.71-14.59,3.04-5.58,11.33-7.03,16.24-3.07l1.06-2.56c-1.12.13-2.24.26-3.36.39-1.9.22-1.92,3.22,0,3,1.12-.13,2.24-.26,3.36-.39s2.19-1.65,1.06-2.56c-5.32-4.29-13.44-4.09-18.51.55s-5.37,12.81-1.54,18.18c4.63,6.49,13.54,6.96,20.62,5.02s12.94-6.23,17.21-11.88c4.72-6.25,6.94-14.35,4.71-22-.54-1.85-3.43-1.06-2.89.8h0Z"/><path class="cls-23" d="m936.91,797.06c1.32,10.04,2.09,20.15,2.28,30.28.16,8.33.19,16.84-1.54,25.03-1.57,7.4-4.75,14.61-10.83,19.39s-14.09,6.3-21.7,6.38c-4.03.04-8.06-.28-12.06-.78s-8.56-1.01-12.47-2.6c-7.49-3.05-10.89-11.33-12.01-18.82s-.05-14.87,3.06-21.46,8.47-12.69,15.54-14.92c3.6-1.14,7.8-1.22,10.87,1.27,2.65,2.15,3.72,5.59,3.83,8.89.13,3.61-.72,7.33-2.4,10.52-1.58,3.02-4.42,5.98-8.14,5.11-1.39-.33-2.67-1.14-3.12-2.55-.59-1.83-3.49-1.05-2.89.8,1.19,3.67,5.13,5.35,8.78,4.78,4.33-.69,7.19-4.6,8.79-8.38,2.89-6.82,3.32-16.6-3.12-21.62-7.27-5.65-17.32-1.26-23.24,4.24s-9.59,13.26-10.82,21.2c-1.27,8.18-.29,17.07,3.73,24.4,2.14,3.9,5.3,7.22,9.4,9.03,4.33,1.91,9.17,2.46,13.83,3.06,8.56,1.1,17.6,1.51,25.95-1.07s14.92-8.24,18.63-16.09,4.67-16.55,4.92-25.06c.32-10.92-.19-21.9-1.29-32.77-.28-2.76-.6-5.52-.97-8.27-.11-.81-.61-1.49-1.5-1.5-.73,0-1.61.7-1.5,1.5h0Z"/><path class="cls-23" d="m849.79,813.6c-1.91,3.29-5.62,5.17-9.38,5.13s-7.18-2.36-8.74-5.9-1.22-7.75,1.27-10.75c2.62-3.16,6.74-4.63,10.68-5.22,8.77-1.32,18.16,1.18,25.68,5.69,8.13,4.87,14.11,12.36,17.55,21.16s4.7,18.85,5.23,28.5c.6,10.92.44,22.06,3.34,32.69,2.41,8.83,7.01,17.4,14.55,22.86,7.11,5.13,16.97,6.86,25.11,3.24,7.03-3.13,11.48-10.78,11.06-18.44-.2-3.71-1.56-7.3-4.16-10-3.2-3.33-7.88-4.72-12.18-2.72-1.83.85-3.34,2.25-4.37,3.99s1.61,3.18,2.59,1.51c2.33-3.95,7.38-4.41,10.81-1.62,2.88,2.34,4.3,5.95,4.33,9.61s-1.21,7.36-3.42,10.28c-2.45,3.23-6.09,5.19-10.02,5.96-8.92,1.75-17.82-2.64-23.46-9.4-6.37-7.64-8.95-17.73-9.99-27.42-1.13-10.57-.8-21.23-2.19-31.78-1.24-9.49-3.67-19.04-8.92-27.17-4.97-7.71-12.3-13.59-20.78-17.03-7.96-3.23-17.8-4.63-26.07-1.69-3.8,1.35-7.4,3.77-9.24,7.46s-1.73,7.72-.2,11.33,4.55,6.48,8.39,7.46,8.09.16,11.3-2.09c1.56-1.1,2.86-2.47,3.82-4.12s-1.62-3.18-2.59-1.51h0Z"/><g><path class="cls-23" d="m916.09,1047.17c-4.43,3.98-2.25,11.8,2.81,14.18,6.6,3.1,13.96-2.5,15.6-8.89,1.92-7.5-1.82-15.47-6.89-20.87-4.76-5.07-11.32-8.56-18.19-9.62-13.84-2.13-27.62,6.04-32.99,18.89-5.69,13.62.12,29.13,10.13,39.07,11.31,11.24,27.68,15.31,43.12,16.43,1.96.14,3.92.23,5.89.29l-.76-2.8c-1.39.76-2.78,1.51-4.17,2.27-1.7.92-.18,3.51,1.51,2.59,1.39-.76,2.78-1.51,4.17-2.27s.68-2.75-.76-2.8c-14.08-.42-28.72-2.78-40.66-10.75-10.44-6.96-18.32-19.22-17.69-32.08.6-12.28,10.05-22.98,21.97-25.65,12.08-2.71,25.4,3.93,30.79,15.02,2.86,5.88,3.23,14.17-3.18,17.85-2.26,1.29-5.32,1.71-7.52.04-1.78-1.36-2.86-3.87-2.54-6.1.16-1.09.67-1.97,1.48-2.7,1.44-1.29-.69-3.41-2.12-2.12h0Z"/><path class="cls-23" d="m830.68,1096.02c-3.8,2.4-9.14,5.74-13.45,2.51s.47-9,3.19-11.69c6.59-6.51,16.27-9.22,25.36-8.98,11.55.3,22.5,5,32.71,10.01s20.4,10.71,31.49,13.8c5.98,1.67,12.69,2.94,18.75.98,4.85-1.58,9.21-5.47,10.12-10.65.19-1.09-.66-2.17-1.85-1.85-1.49.41-2.98.82-4.47,1.23-1.86.51-1.07,3.41.8,2.89,1.49-.41,2.98-.82,4.47-1.23l-1.85-1.85c-.88,5.03-5.4,8.2-10.18,9.11-5.9,1.12-12.23-.58-17.83-2.38-11.52-3.71-21.96-9.99-32.91-15.02-10.37-4.76-21.7-8.77-33.29-7.96-9.6.67-19.48,4.48-25.6,12.18-1.79,2.25-3.63,4.93-3.71,7.92-.07,2.61,1.41,4.87,3.55,6.26,5.39,3.5,11.46.31,16.21-2.69,1.63-1.03.12-3.63-1.51-2.59h0Z"/></g><line class="cls-20" x1="1473.5" y1="1508.14" x2="2407.5" y2="1508.14"/><line class="cls-20" x1="1473.5" y1="1405.14" x2="2407.5" y2="1405.14"/></svg>