<?xml version="1.0" encoding="UTF-8" standalone="no"?> <svg xmlns:dc="http://purl.org/dc/elements/1.1/" xmlns:cc="http://creativecommons.org/ns#" xmlns:rdf="http://www.w3.org/1999/02/22-rdf-syntax-ns#" xmlns:svg="http://www.w3.org/2000/svg" xmlns="http://www.w3.org/2000/svg" height="819.586" width="965.07001" id="svg212" version="1.1" viewBox="0 0 965.07001 819.586"><metadata id="metadata216"></metadata><defs id="defs63"><style id="style10">.cls-1{mask:url(#mask);}.cls-2{mix-blend-mode:multiply;fill:url(#_ÂÁ_Ï_ÌÌ_È_ËÂÌÚ_51);}.cls-3{fill:#194f9e;}.cls-4{mask:url(#mask-2);}.cls-5{opacity:0.5;fill:url(#_ÂÁ_Ï_ÌÌ_È_ËÂÌÚ_43);}.cls-6{filter:url(#luminosity-noclip);}</style><filter color-interpolation-filters="sRGB" height="32766" width="657.06" y="-7659" x="271.47" id="luminosity-noclip"><feFlood id="feFlood12" result="bg" flood-color="#fff"></feFlood><feBlend mode="normal" id="feBlend14" in2="bg" in="SourceGraphic"></feBlend></filter><mask maskUnits="userSpaceOnUse" height="32766" width="657.06" y="-7659" x="271.47" id="mask"><g id="g17" class="cls-6"></g></mask><radialGradient gradientUnits="userSpaceOnUse" gradientTransform="matrix(0.86,0,0,0.86,-465.33,355.04)" r="382.78" cy="285.06" cx="1242.76" id="_ÂÁ_Ï_ÌÌ_È_ËÂÌÚ_51"><stop id="stop20" stop-color="#333" offset="0"></stop><stop id="stop22" stop-color="#353535" offset="0.39"></stop><stop id="stop24" stop-color="#3c3c3c" offset="0.53"></stop><stop id="stop26" stop-color="#474747" offset="0.63"></stop><stop id="stop28" stop-color="#585858" offset="0.71"></stop><stop id="stop30" stop-color="#6e6e6e" offset="0.78"></stop><stop id="stop32" stop-color="#8a8a8a" offset="0.84"></stop><stop id="stop34" stop-color="#aaa" offset="0.9"></stop><stop id="stop36" stop-color="#d0d0d0" offset="0.95"></stop><stop id="stop38" stop-color="#f9f9f9" offset="0.99"></stop><stop id="stop40" stop-color="#fff" offset="1"></stop></radialGradient><mask maskUnits="userSpaceOnUse" height="657.06" width="657.06" y="271.47" x="271.47" id="mask-2"><g id="g45" mask="url(#mask)" class="cls-1"><path id="path43" d="m 923.85,654.32 c 0.35,-2.35 0.67,-4.77 1,-7.22 0.47,-3 1,-6.17 1.5,-9.67 l 1,-10.47 0.22,-5.45 c -0.27,3.26 -0.6,6.49 -1,9.68 0.41,-4.35 0.78,-8.64 1.09,-12.74 l -0.12,3.06 c 0.13,-1.59 0.26,-3.18 0.37,-4.78 0.11,-1.6 0.19,-3.32 0.25,-5.12 0,-0.38 0.05,-0.77 0.08,-1.14 1.21,-18.12 -1.54,-55.48 -7,-78.36 v 0 c -0.71,-3.32 -1.66,-7.09 -2.65,-10.9 -0.99,-3.81 -1.94,-7.62 -3,-11.45 -0.23,-0.87 -0.45,-1.73 -0.66,-2.55 l -0.67,-2 q -2.21,-7.29 -4.85,-14.64 -0.54,-1.54 -1.11,-3.12 c -0.18,-0.56 -0.35,-1.11 -0.53,-1.66 L 906.64,483 c -0.5,-1.31 -1.06,-2.69 -1.64,-4.11 a 319.81,319.81 0 0 0 -42.26,-75.46 296.17,296.17 0 0 0 -42,-46.29 310.88,310.88 0 0 0 -37.25,-29.39 l -1.49,-1.1 c -2.21,-1.52 -5.23,-3.4 -7.47,-4.86 l -0.39,-0.23 a 322.17,322.17 0 0 0 -37,-20.11 v 0 c -36.72,-17.26 -72,-23.77 -88.19,-26.33 l 3.6,0.57 c -2.76,-0.46 -5.53,-0.89 -8.39,-1.3 l -1.35,-0.18 -1.29,-0.17 -1.17,-0.15 -1.14,-0.14 -1.07,-0.12 -1.14,-0.13 -1,-0.11 -1.05,-0.12 -1.08,-0.11 -1.09,-0.11 -1.17,-0.12 -1.2,-0.11 -1.36,-0.13 -1.4,-0.12 -1.69,-0.14 -1.75,-0.13 -2.3,-0.17 -2.4,-0.15 c -1.07,-0.07 -2.5,-0.14 -3.58,-0.2 l -3.67,-0.16 c -2.94,-0.07 -5.71,-0.11 -8.38,-0.13 H 604 c -5.27,0 -10.09,0 -14.69,0.16 l -1.76,0.06 -2,0.08 q -7.07,0.3 -13.92,0.89 h 0.08 l -1,0.07 -0.76,0.08 q -11.21,1 -21.84,2.74 l -1.29,0.17 -1.57,0.29 q -5.19,0.89 -10.25,1.91 l -2.44,0.45 c -1.54,0.33 -3.19,0.72 -4.89,1.13 q -9.93,2.25 -19.29,5 l -1.75,0.46 -1.52,0.51 q -5.08,1.56 -10,3.23 l 2.94,-1.06 -3.75,1.34 c -2.33,0.81 -4.63,1.62 -6.91,2.46 l -4.23,1.54 c -2.31,0.88 -4.85,1.94 -7.45,3.05 q -6.87,2.83 -13.32,5.84 l -2.89,1.26 -2.5,1.31 q -9.22,4.48 -17.52,9.18 l -2.25,1.17 c -1.91,1.1 -4,2.36 -6.13,3.69 -5,3 -9.78,6.06 -14.23,9.05 l -1.19,0.75 -0.85,0.63 c -7.32,5 -13.8,9.84 -19.41,14.32 v 0 0 l -0.07,0.06 -0.35,0.28 -2.24,1.83 q -8.5,6.94 -16.19,14.09 l -0.32,0.28 -0.46,0.46 q -8.78,8.24 -16.48,16.58 l -0.87,0.87 c -0.88,1 -1.81,2 -2.75,3.08 -4.49,5 -8.68,10 -12.62,14.95 l -1.15,1.27 -0.83,1.15 c -5,6.41 -9.59,12.74 -13.75,18.9 l -0.38,0.52 c -0.55,0.82 -1.12,1.7 -1.7,2.6 -19.74,29.93 -29.69,55.38 -33.39,66.12 -1.23,3.59 -2.5,7.5 -3.75,11.57 l -4.34,13.37 c -1.7,6.07 -3.39,13.83 -4.94,20.66 -0.43,1.79 -0.83,3.54 -1.21,5.23 a 249.55,249.55 0 0 0 -4.95,35.38 c -0.28,4.74 -0.52,10 -0.69,15.39 l -0.52,11.42 c 0,3.87 0.14,8.36 0.34,12.87 0.1,4.78 0.29,9.38 0.61,13.6 1.16,15.56 3.94,36.33 8.06,51.38 0.88,3.19 1.84,6.62 2.87,10.17 l 4.09,14.52 c 1.19,3.67 2.75,7.9 4.34,12.11 1.59,4.21 3,8.23 4.5,11.89 2.59,6.27 5.86,13.35 9.38,20.42 l 1.21,2.64 c 1.16,2.29 2.53,4.8 4,7.37 2.83,5.3 5.69,10.37 8.39,14.82 a 319.81,319.81 0 0 0 45.38,58.52 l 1.06,1.16 c 1.7,1.73 3.63,3.6 5.65,5.5 4.95,4.78 9.34,8.76 12.93,12 11.42,10.33 28.13,22.45 41.22,30.54 14.67,9.06 17.76,10.9 34.67,18.62 4.82,2.21 9.68,4.38 13.82,6.25 23.17,10.46 56.45,17.57 75,20.6 l 1.81,0.31 1.94,0.28 1.9,0.28 1.55,0.2 1.5,0.2 1.38,0.17 1.35,0.17 1.29,0.15 1.18,0.14 3.64,0.39 h 0.27 l 1.3,0.14 1.37,0.13 1.4,0.14 1.54,0.14 h 0.08 l 3.09,0.27 h 0.26 l 1.91,0.14 2.45,0.18 2.52,0.16 h 0.66 0.75 l 2.26,0.12 3.77,0.17 h 1.73 c 4.4,0.14 8.74,0.18 13,0.15 1.55,0 3,0 4.47,0 a 320.24,320.24 0 0 0 156.3,-44.09 l 0.19,-0.1 0.15,-0.1 c 7.56,-4.43 14.57,-8.93 21,-13.38 v 0 h 0.05 l 0.08,-0.05 0.58,-0.41 2,-1.41 q 9,-6.4 17.09,-13 l 0.46,-0.35 0.52,-0.45 c 6.47,-5.3 12.46,-10.6 18,-15.8 l 0.42,-0.37 c 0.78,-0.74 1.58,-1.52 2.4,-2.33 a 324.67,324.67 0 0 0 31.51,-35.23 v 0 0 0 l 0.08,-0.1 c 5.91,-7.67 10.62,-14.41 14.64,-20.6 v 0 0 c 2.5,-3.85 4.73,-7.47 6.81,-11 2.29,-3.78 4.44,-7.46 6.32,-10.9 v 0 0 0 a 203.3,203.3 0 0 0 10.06,-20 c 0.44,-1 0.87,-1.9 1.28,-2.82 l 0.12,-0.25 0.1,-0.24 c 4.45,-10 7.46,-18.06 9.6,-23.85 v 0 c 5.43,-13.71 10.28,-32.92 13,-47.41 0.56,-3 1.09,-6.22 1.58,-9.55 M 636.61,273.74 h 0.06 l 0.76,0.05 z" class="cls-2"></path></g></mask><radialGradient gradientUnits="userSpaceOnUse" r="328.53" cy="600" cx="600" id="_ÂÁ_Ï_ÌÌ_È_ËÂÌÚ_43"><stop id="stop48" stop-color="#fff" offset="0"></stop><stop id="stop50" stop-color="#fdfdfd" offset="0.49"></stop><stop id="stop52" stop-color="#f6f6f6" offset="0.67"></stop><stop id="stop54" stop-color="#ebebeb" offset="0.8"></stop><stop id="stop56" stop-color="#dadada" offset="0.9"></stop><stop id="stop58" stop-color="#c4c4c4" offset="0.98"></stop><stop id="stop60" stop-color="#bfbfbf" offset="1"></stop></radialGradient></defs><g transform="translate(-119.86,-271.49)" data-name="Layer 1" id="Layer_1"><path id="path65" d="m 119.86,712.2 85,-22.15 -5.22,-20 21.52,-5.6 16.89,64.83 -21.52,5.61 -5.21,-20 -85,22.15 z" class="cls-3"></path><path id="path67" d="m 163.38,829 40.51,-20.13 -9.83,-19.77 -40.5,20.13 -11.47,-23.06 98.58,-49 11.47,23.07 -37.76,18.76 9.83,19.77 L 262,780 l 11.4,22.93 -98.58,49 z" class="cls-3"></path><path id="path69" d="m 192.42,878.64 86.94,-67.51 37.89,48.8 -17.55,13.63 -22.19,-28.56 -16.23,12.6 16.64,21.4 -17.07,13.25 -16.64,-21.43 -18.53,14.39 23,29.66 -17.55,13.64 z" class="cls-3"></path><path id="path71" d="m 358.69,989.55 c -18.18,17.83 -34.69,21.05 -51.8,8.35 -22.42,-16.61 -17.21,-39.86 3.88,-68.3 17.9,-24.14 40.78,-39.05 63.81,-22 19.34,14.33 18,30.87 6.35,50.13 l -20.34,-12.22 c 5.35,-9.78 6,-16.56 1.18,-20.12 -6.53,-4.84 -15,-0.41 -29.94,19.79 -17,22.91 -18.1,30.86 -11.45,35.79 4.8,3.56 11.93,0.63 20.8,-8.24 z" class="cls-3"></path><path id="path73" d="m 357,1029.66 48.95,-98.6 22.94,11.38 -39.07,78.69 31.31,15.55 -9.88,19.91 z" class="cls-3"></path><path id="path75" d="M 499.82,969.67 524.19,977 503,1047 c -7.27,24.07 -21.9,33.26 -46.7,25.77 -24.51,-7.4 -30.72,-22.89 -23.45,-47 l 21.14,-70 24.66,7.45 -22.16,73.38 c -2.66,8.81 -0.34,13.83 6.41,15.87 6.75,2.04 12.06,-0.68 14.72,-9.49 z" class="cls-3"></path><path id="path77" d="m 522.21,1087.89 9.62,-109.65 31.46,2.76 c 26.58,2.33 37.42,12 35.64,32.36 -1,11 -6.55,18.51 -16.23,21.82 v 0.3 c 10.37,4.61 15.5,12.75 14.29,26.5 -2.3,26.27 -20.84,30.64 -43.14,28.69 z m 35.37,-18.9 c 9.31,0.81 12.86,-2.72 13.61,-11.28 0.81,-9.31 -4,-12.81 -11.29,-13.45 l -8.55,-0.75 -2.17,24.74 z m 3.27,-44.35 c 6.87,0.61 11.14,-2.41 11.86,-10.65 0.69,-7.79 -3.54,-10.47 -10,-11 l -7.79,-0.69 -1.9,21.69 z" class="cls-3"></path><path id="path79" d="m 650,1036.84 c -6.77,-33.2 -2.6,-57.21 26.85,-63.22 29.45,-6.01 42.69,14.45 49.46,47.65 7,34.4 0.59,57.31 -26.9,62.92 -27.49,5.61 -42.41,-12.95 -49.41,-47.35 z m 50.63,-10.33 c -5.18,-25.39 -10.39,-34 -19.55,-32.16 -9.16,1.84 -10.57,11.86 -5.39,37.25 5.43,26.59 10.81,33.78 19.52,32 8.79,-1.8 10.79,-10.5 5.37,-37.09 z" class="cls-3"></path><path id="path81" d="M 760.64,1066.87 718.94,965 l 57.89,-23.7 8.42,20.58 -34.19,14 7.78,19 25.68,-10.52 8.19,20 -25.71,10.52 17.31,42.29 z" class="cls-3"></path><path id="path83" d="m 912.51,981.26 -34.77,-25.2 -7.14,5.56 25.33,32.54 -20.2,15.73 -67.61,-86.89 26.62,-20.71 c 19,-14.79 34.47,-15.37 48.5,2.66 8.19,10.52 9.26,20.38 6,29.15 l 45.31,30 z M 863,941.33 c 5.21,-4.05 8,-9.5 1.18,-18.21 -8.28,-10.64 -13.57,-6 -17.08,-3.22 l -5.56,4.33 16.38,21.06 z" class="cls-3"></path><path id="path85" d="m 905.23,916.39 c -25.58,-22.22 -36.88,-43.81 -17.18,-66.5 19.7,-22.69 42.67,-14.52 68.25,7.7 26.51,23 35.35,45.12 17,66.3 -18.35,21.18 -41.56,15.53 -68.07,-7.5 z m 33.88,-39 c -19.56,-17 -29,-20.68 -35.08,-13.62 -6.08,7.06 -1.17,15.84 18.39,32.83 20.49,17.8 29.14,20.23 35,13.52 5.86,-6.71 2.18,-14.94 -18.31,-32.73 z" class="cls-3"></path><path id="path87" d="m 1047.25,808.6 -60.46,-31.94 -0.14,0.27 53.58,45 -8.31,15.72 -67.48,-18.65 -0.14,0.27 60.46,31.95 -10.6,20.06 -97.33,-51.42 15.25,-28.88 62.78,17.39 0.14,-0.27 -49.31,-42.88 14.83,-28.06 97.33,51.43 z" class="cls-3"></path><path id="path89" d="m 1068.69,755.52 -106.38,-28.3 15.88,-59.71 21.49,5.72 -9.31,35 19.86,5.28 7,-26.23 20.89,5.56 -7,26.23 22.67,6 9.65,-36.3 21.49,5.71 z" class="cls-3"></path><g id="g93" mask="url(#mask-2)" class="cls-4"><circle style="fill:url(#_%C3%82%C3%81_%C3%8F_%C3%8C%C3%8C_%C3%88_%C3%8B%C3%82%C3%8C%C3%9A_43)" id="circle91" r="328.53" cy="600" cx="600" class="cls-5"></circle></g><path id="path95" d="m 389.78,420.93 a 12.06,12.06 0 0 1 -0.69,-2.3 1.39,1.39 0 0 1 0.23,-1.14 c 2.5,-3.34 0.11,-17.08 4,-10.66 a 1.52,1.52 0 0 0 1.8,0.65 c 6.47,-2.28 11.63,-10.36 15.08,-14.22 a 1.42,1.42 0 0 1 1.49,-0.43 c 5.92,1.92 8.05,-2.31 1.61,6.71 5.81,5.85 -10.86,18.87 -14.44,14.24 -1.43,-0.42 -3.22,2.87 -4.92,5.1 a 1.45,1.45 0 0 0 -0.15,1.46 c 0,0 0.71,1 1.1,0.84 12.36,-4.38 -2.1,7.84 8.82,11.68 1.61,-3.69 -1.07,-14.89 2.41,-3.54 7.08,1.76 4.41,-8.68 6.77,-12.49 4.71,-4.11 3.49,1.2 1.81,3.93 -0.13,3.39 9,-3.85 10.12,-4.4 0.76,-2 -1.68,-3.13 -1.65,-4.49 2.38,-3.13 -1.08,-3.47 0.18,-5.95 -2.66,-1.51 2.1,-3.68 3.42,-2.94 -1,-4.14 -0.22,-1.75 2.35,-4 2.13,-3.66 -0.83,-4.45 0,-6.49 1.24,-1.33 -0.29,-4.36 0.29,-6.68 1.18,-2.18 1.12,-2.2 0.41,-2.44 1.56,-0.43 7.28,-11.37 -0.12,-6.32 1.64,-2.46 -0.49,-2.87 -2.44,-2 -1.75,1.19 -2.76,-0.79 -0.13,-1.22 3.29,-6.85 -19.57,6.93 -16.43,9.15 -4.85,1 -1.63,9.9 -6.81,12.3 -7.92,5.23 -12,8.21 -3.15,-2.13 -6.81,2.06 5.56,-11.88 14.8,-19.82 0.75,2.88 9.18,-3.54 9.41,-4.43 -3.93,-5 -2.44,-0.64 -6.11,-1.42 -0.46,-7.48 -8.4,5.84 -7.95,0.39 -9.09,10.87 -4.06,17.3 -18.92,19.09 C 394,377 407.1,370.68 410,363.63 c -2.31,0.19 -7.33,6.47 -4,1.22 -0.33,-0.64 -3.59,3 -2.29,0.22 0.82,-2.45 8.49,-9.78 7.72,-11.72 4.5,-6.61 -15.92,5.66 -19.29,11.49 10.46,-3.28 2.29,0.07 -1.76,5.93 2.14,1.06 1.44,5.12 -0.18,4.28 -7.95,-7.68 -5.06,10.55 -8.73,4.11 2.08,-7.66 0.91,-7.38 4.11,-10.37 -6.33,5 -2.6,0.49 0.42,-2.4 a 0.29,0.29 0 0 0 -0.29,-0.48 c -2.48,0.86 -2.82,-1.12 -6.56,1.11 a 0.28,0.28 0 0 1 -0.4,-0.37 c 4.63,-7.44 17.52,-22.17 15.92,-21.58 -76,56 -127.75,193.85 -95.84,240.58 8.8,1.65 12.71,34.19 20.38,26.23 a 1.45,1.45 0 0 1 2.28,0.21 c 6.62,11.41 -9,34.67 0.34,44.45 4.17,8.39 6.17,15.46 11.05,24.32 2.81,4.51 10.29,7.86 11.31,13.51 16.86,58.71 20.7,87.39 58.05,111.18 4.58,3.31 -2.24,-7 -6,-7.4 -6.93,-6.73 -7.6,-10.09 -8.77,-18 -5.82,-4.65 -4.46,-8.41 -6.34,-14.43 -0.81,-2.3 -5.1,-6.41 -3.33,-6.46 7.68,3 0.94,-3.29 1.25,-5.7 4.81,1 8.7,-1.52 5.82,-6.52 -0.6,-0.26 -1.58,-1.24 -3.34,-5.09 3.79,0.06 4.82,4.32 7.59,-3.38 -3.15,-5.73 6.28,-7.11 2,-21.51 13.95,-11.92 16.89,0 15.35,-29.6 -0.37,-6.71 14.6,-15.5 5.83,-24 -8.33,-4.08 -15.85,-12.9 -21.85,-9 0.53,-3.69 -14,-11.68 -15.55,-8 -5.54,0.38 4.53,-5.07 1.14,-7.55 -2.06,-1 -3.18,-8.61 -3.35,-7.75 -3.7,-5.18 -9.12,-4.51 -12.16,-6.93 -4.89,-5 -7.19,-7.67 -8.82,-11.7 -5.58,-6.2 -3.32,-1.28 -11.16,-3.88 -3.13,-4.9 -8.27,-5.18 -7.82,1.32 0,0.38 0.07,0.78 0.13,1.2 -3.23,-1.88 1.81,-7.39 0.59,-9.36 -2.13,-0.9 -4.24,3.86 -6.38,2.77 -0.94,-0.28 -2.72,6.3 -5.22,5.57 -11.47,-3.36 -7.27,-10.87 -7.79,-20.06 a 1.42,1.42 0 0 0 -1,-1.3 c -10.65,-3 0.07,-11.42 -1.47,-19.42 a 0.46,0.46 0 0 0 -0.84,-0.18 c -18.66,26.33 -11.95,-18 -4.41,-27.88 a 1.39,1.39 0 0 1 1.41,-0.5 c 2.26,0.61 3.9,3.87 5.26,2.44 -0.37,-7.65 7.32,-0.2 8.25,0.11 1.48,3 -1.59,10.58 -0.3,13.69 a 1.46,1.46 0 0 0 2.71,-0.15 c 3.76,-10.83 0.91,-23.84 13.3,-29.75 a 1.68,1.68 0 0 0 0.82,-0.88 c 3.35,-9 2.23,-5.9 9.16,-15.63 0.48,-4.44 4.08,-2.89 7.18,-3.34 a 1.38,1.38 0 0 0 1.16,-1.22 c 0.26,-2.74 3,-8 7.1,-8.2 3.56,1.66 4,-4.17 6.13,-1 -9.35,10.42 5.86,2.38 8.55,0.75 1.1,-2.34 -4.33,-2.64 -4.13,-3.44 -2.28,-6 6,-9.44 0.9,-12.53 a 1.43,1.43 0 0 1 -0.18,-2.29 c 4.68,-4.14 19.71,6.87 26.57,-8.24 0.89,0.69 -3.36,-4.67 -1,-5.31 a 0.46,0.46 0 0 0 0.26,-0.71 c -1,-1.35 -2.15,-1.68 -3.42,-3 a 0.44,0.44 0 0 1 -0.13,-0.34 c 0.27,-6.84 2.59,-13.1 5.24,-21 1.43,-1.71 -0.64,-1.85 -1.89,0.53 -5.06,6.15 -10.93,9.19 -8.24,0.66 0.85,-3.5 5.46,-5.36 3.29,-6.6 -4,-2.78 3.94,-6 -4,-8 -5.08,-6.24 -6.91,10.84 -11.65,10.86 -5.3,5.87 -4.6,16.08 -13.23,16.8 -1.78,0.67 -6.14,13.82 -9.29,14.12 10.21,-24.42 -14,-35.16 21.75,-53.71 1.79,-2.88 1.26,-1.38 2.73,-0.34 2.1,0.36 4.56,-4.54 5.44,-3 -1.47,3.08 -5.38,5.27 -4.69,8.06 4.87,-4.33 5.95,0.15 8.19,1.52 0.62,0.33 0.41,-0.16 0.19,-0.74 z" class="cls-3"></path><path id="path97" d="m 345,584.56 c -1.4,-0.5 -4.23,-0.92 -3.14,1.41 0.85,1.34 3.86,0.21 3.14,-1.41 z" class="cls-3"></path><path id="path99" d="m 340.15,583.79 c -1,-4.56 -3.81,-5 -8.38,-6 -0.46,1.95 3.78,7.39 -2,3.53 -2.22,2.49 2.72,2 4,3.82 a 0.42,0.42 0 0 0 0.69,0 c 1,-1.74 2.93,-1 5.36,-1 a 0.31,0.31 0 0 0 0.33,-0.35 z" class="cls-3"></path><path id="path101" d="m 326.2,582.77 c -0.82,-0.91 -1.19,-1.76 -2.77,-1.67 -2.97,0.71 2.97,5.7 2.77,1.67 z" class="cls-3"></path><path id="path103" d="m 328.37,577.58 a 1.45,1.45 0 0 0 0.92,-2.19 c -2.58,-4.06 -8.53,-11.59 -11.42,-10 -1.72,-0.72 -4.86,4.8 -2.41,3.35 0.45,-1.4 0.5,-1.2 1.76,-0.66 0.33,-0.87 1.77,-1.81 1.65,-0.15 -0.19,1.29 5.5,3 4.93,5.24 2.52,2.68 -0.49,5.53 4.57,4.41 z" class="cls-3"></path><path id="path105" d="m 414.85,356.09 c 6.17,-1.74 5.64,2.47 12.06,-2.45 0.84,-0.62 3.19,-3.5 0.56,-1.66 -3.52,1.8 4.26,-4.85 4.31,-4.68 3.52,-3.47 -6.45,2.7 -7.28,4.66 -4.58,1.26 4.3,-4.91 2.39,-5.42 3.64,-3.88 -6.23,2.2 -8.31,3.11 -0.58,1.91 -4.09,4.35 -3.73,6.44 z" class="cls-3"></path><path id="path107" d="m 424,344.61 c 2.22,-1.13 3,-1.67 1.81,0.54 3.19,-1.91 8.47,-3.32 9.54,-6.43 -3.91,0.1 -8.77,2 -12.25,4.52 1.57,-0.45 -2.75,3.56 0.9,1.37 z" class="cls-3"></path><path id="path109" d="m 450.66,349.56 c 9.09,-2 -5.15,9.16 -9.06,6.42 -4.19,0.94 5.83,-9.55 -5.07,-2.29 1.9,9.26 -18.44,11.27 -0.18,18 17.88,-8.25 -11.54,-7.91 4.11,-12.31 -0.59,2.63 6.1,2.42 6.25,3.43 -4.63,3.54 3.94,-0.6 2,1.16 5.4,-3.66 1.95,-3.93 8.69,-6.2 11.5,-4.11 15.05,-8.43 23.83,-10.3 5.79,0 12.81,-5.49 16.39,-4.85 14.53,-4.69 5.6,-9.08 2.86,-12.68 -4.44,-0.08 -4.09,3.65 -4.23,-1.14 -3.23,1.45 -1.7,2 -2.81,0 -8.79,7 -1.31,-2.79 -6.41,1.8 -3.13,0.74 -11.38,-0.87 -15.14,8.21 1.44,2.08 -3.56,2.45 -3.87,2.41 3.13,-6.52 5,-4.09 7.14,-9.56 -4.36,1.93 -21.07,9.6 -24.5,17.9 z" class="cls-3"></path><path id="path111" d="m 450.57,339.09 c -6.86,3.31 -2.69,1.25 -7.31,7.67 0,1.16 2.86,-1.18 2.18,1.14 2.47,2.73 6.19,-2.51 7.6,-4.28 0.25,-0.82 -1.37,-1 -2.26,-0.6 a 62.92,62.92 0 0 0 3.92,-5.62 c 1.7,-3.64 -8.08,3.18 -4.13,1.69 z" class="cls-3"></path><path id="path113" d="m 412.66,402.36 c -1.53,-1.95 -8.85,2.84 -5.19,4.77 1.39,-0.28 5.67,-2.61 5.19,-4.77 z" class="cls-3"></path><path id="path115" d="m 383.6,422.07 a 3.41,3.41 0 0 0 -4,2.5 c 0.79,0.29 6.7,-1.46 4,-2.5 z" class="cls-3"></path><path id="path117" d="m 382.73,428.84 c 0.56,-1.41 4.09,-2.47 3,-4 -1.2,-0.3 -4.37,3.56 -3,4 z" class="cls-3"></path><path id="path119" d="m 397.87,485.92 c 0.73,-2.74 -6.36,3 -3.55,-4.66 0.49,-2.48 5.5,-2.71 1.93,-4.05 -4.1,2 -7.57,8.45 -11.65,10.82 -0.21,5.43 13.06,4.48 13.27,-2.11 z" class="cls-3"></path><path id="path121" d="m 496.74,419 c 12,-3.31 8.35,-11.36 14.44,-15.94 -2.14,-4.32 8.4,-2 3.66,-6.14 5.86,0.06 4.1,-0.84 5,-4.6 5.64,0 -2.42,-14.26 7,-7.53 3.87,1.4 -1.09,-8.65 2,-7.82 7.22,-5.21 13,-14.82 22.37,-17.08 -0.13,-8.54 -10.65,-0.93 -15.75,-1.36 2.8,-2.64 7.67,-2.84 5.91,-5.42 -2.64,-0.66 -4.54,3.28 -7.41,1.21 3.41,-1.77 3.41,-1.77 3.46,-2.62 4.16,0.24 14.63,-1.89 4.77,-4.8 5.54,-6.66 -11.15,-10.47 -13.82,-4.75 -2,-4.46 -5.35,0.18 -8.43,1.33 -4.4,-3.67 -3.84,4.38 -5.59,7 -5.61,-2.67 2.72,-3.71 -0.22,-7.78 -2.75,-1.88 -2.72,5.13 -5.84,4 -1.27,0.52 -1.53,1.5 -0.58,-1.31 -3.73,0.47 6.46,-6.16 -1.93,-2.83 -3.58,-4.89 -8.13,2.69 -12.22,4 -4.45,-1.69 -13.24,2.27 -10.29,5.75 -4.13,4.49 -21.09,-1.28 -19.16,8.57 -9.19,6.16 -10.73,11.71 -1.07,10.27 5.75,8.61 -8.5,21.35 -12.17,26.54 1.83,0.33 5.34,1.6 2.18,4.11 -2.19,1 -4,-3.18 -4.5,0.91 -13,9.18 14.28,-2.26 -8.81,12.91 -3.74,1.47 -9.37,19.54 -8.94,28.39 1.61,-0.33 5.66,4.08 4.42,4.89 4.34,4.43 15.62,-13.31 17.87,-14.26 6.6,-9.46 32.32,-11.22 43.65,-15.64 z" class="cls-3"></path><path id="path123" d="m 800.42,637 c 1.12,1.92 2.42,0.2 6,-1.34 a 1.45,1.45 0 0 1 2,0.94 c 2.78,9.61 2.87,13.77 0.27,23.53 a 1.46,1.46 0 0 0 0.51,1.51 c 4.24,3.37 1.23,16.79 7.85,19.93 a 1.45,1.45 0 0 0 2.07,-1.49 c -0.66,-4.79 1.26,-9.22 -2.84,-13.5 -3.8,-2.25 -2.85,-5.49 -4.36,-9.7 a 1.52,1.52 0 0 1 0,-1.11 c 1.13,-2.59 2.26,-11.33 4.47,-9 1.35,4 5.45,2.94 4.9,7.91 1.69,-1.52 1,-0.6 1.12,1 2.46,-0.3 3,0.81 2.82,2.22 a 1.44,1.44 0 0 0 2.2,1.39 c 4.92,-3.15 10.6,-6.44 9,-12.95 -2,-15.52 -13.38,-21.85 0.44,-25.15 a 1.45,1.45 0 0 1 1.79,1.25 c 0.4,3.95 1,2.36 1.19,0.52 a 1.44,1.44 0 0 1 1.2,-1.23 c 3,-0.6 5.25,-4.63 6.78,-3.76 9,-1.45 17.51,-22.21 14.29,-24.44 a 1.73,1.73 0 0 0 -0.47,-3.17 1.42,1.42 0 0 1 -1,-1.87 c 0.45,-1.21 1.12,-2.32 -1,-4.18 0.11,0.46 4.63,-0.36 1.25,-2.22 a 1.37,1.37 0 0 1 -0.38,-0.29 c -1.35,-1.6 -6,-9.8 -5.17,-13.2 a 1.39,1.39 0 0 1 1,-1 c 5.86,-1.72 3.4,-9.28 -1.85,-4.59 a 1.28,1.28 0 0 1 -1.92,-0.19 l -3.43,-4.94 a 1.46,1.46 0 0 1 0.19,-1.87 c 5,-5 6.71,-11.19 6.64,-3 a 1.45,1.45 0 0 0 2.48,1 c 4.2,-4.06 4.59,6.53 7.93,6.9 a 1.49,1.49 0 0 1 1.07,0.81 c 1.95,3.63 0,14.88 3.93,10.25 8.7,-2.69 -2,-13.8 -4.14,-18.62 a 1.48,1.48 0 0 1 0,-1.2 c 6.45,-14.6 15,-28.83 5,-49 a 1,1 0 0 1 -0.1,-0.27 c -0.44,-1.79 -1.48,-4.53 -0.27,-4.24 8.74,8.73 3,-2.13 -2.15,-9.64 a 1.42,1.42 0 0 0 -2.4,0 c -0.37,0.78 -2,-0.47 -4.25,-1.68 a 1.39,1.39 0 0 0 -2,0.94 c -0.46,1.68 -2.2,0 -3.66,-2.06 a 1.56,1.56 0 0 0 -1.71,-0.67 c -3.47,1.2 -3.79,-20.32 -2.09,-25.49 a 1.41,1.41 0 0 1 1.34,-1 c 4.24,-0.06 1.78,-7.24 8.13,-2.6 a 1.44,1.44 0 0 0 2.27,-1.39 c -0.57,-3.2 -5,-8 -4.77,-10.47 -1.43,-4.09 -0.69,-6.15 1.36,-4.81 a 1.45,1.45 0 0 0 2.12,-1.64 c -4.4,-16.35 14.5,34.78 25,53 a 1.45,1.45 0 0 0 2.68,-1 c -1.86,-10.29 -5.47,-15.62 -8.72,-26.43 a 1.57,1.57 0 0 0 -0.31,-0.55 c -3.21,-3.54 -12.31,-13.5 -9.71,-18.9 3.47,5.24 -1.55,-3.69 0.7,-3.31 a 1.41,1.41 0 0 0 1.66,-1.84 c -8.61,-22.66 -3.27,-15.61 -14.52,-25.41 a 1.56,1.56 0 0 1 -0.52,-1.2 c 0.5,-3.23 -11.16,-13 -5.38,-10.86 a 1.44,1.44 0 0 0 1.82,-2 c -1.76,-3.52 -7.65,-9.48 -11.61,-12.26 a 1.37,1.37 0 0 0 -1.59,-0.06 c -3.4,2.6 -29.74,-10.66 -10.45,6.74 -2.12,0.83 -11.57,-11.33 -6.4,-2.16 -0.84,0.56 -1.57,1.49 -2.68,1 -3,4.77 -7.18,-2.51 -11.36,-3.69 a 1.42,1.42 0 0 0 -1.55,0.67 c -2.66,4.4 -4.44,1.74 -6.75,0.53 0.64,1.64 -4.27,0 -4.28,-1.11 a 1.53,1.53 0 0 0 -0.49,-1.32 c -2.8,-2 -9.14,0.32 -12.93,-0.23 -1.81,0.66 2.7,1.07 1.44,2.27 a 1.4,1.4 0 0 0 0,2 12.69,12.69 0 0 0 2.42,1.45 1.44,1.44 0 0 1 -0.09,2.58 c -1.47,0.58 -2.45,2.52 -4,2.81 a 1.48,1.48 0 0 0 -1,2.27 c 2.17,3.14 3.27,4.14 -6.48,-1.21 a 1.47,1.47 0 0 1 -0.75,-1.23 c -0.14,-3.76 -7.38,-6.56 -11.62,-7.59 a 1.46,1.46 0 0 0 -1.69,1.89 c 0.93,3.07 -1.06,5.74 -6.45,1.17 A 1.39,1.39 0 0 0 756.89,394 c -5,2.77 -14.71,-1.64 -12,2.63 2,-1.38 1.73,0.17 0.85,1.75 a 1.45,1.45 0 0 1 -2.71,-0.67 c -0.17,-6.21 -0.67,-16.13 -6,-16.91 a 1,1 0 0 1 -0.51,-0.19 c -3.47,-2.35 -8,-4 -8.73,-1.81 a 1.47,1.47 0 0 1 -2.24,0.79 c -6,-4.48 -12.61,-11.84 -6.35,2.24 a 1.45,1.45 0 0 1 -0.16,1.45 c -1,1.39 -2,4.74 -2.87,4.53 -5.72,-2.66 -11.17,4.55 -7.59,12.87 2.46,6.37 -14.2,-0.82 -3.93,9.84 a 1.44,1.44 0 0 1 -1.61,2.33 c -2.1,-0.94 -3.64,-1.48 -2.78,0 a 1.43,1.43 0 0 1 -1.09,2.14 c -1.8,0.21 -1.36,0.57 1.59,3.39 -2.08,1.9 -3.23,-0.31 -4.3,-2.9 a 1.45,1.45 0 0 0 -2.77,0.36 c 0,0.35 -0.06,0.38 -0.1,0.42 0,6.94 -2.4,-1.27 -3.25,-3.93 a 1.44,1.44 0 0 0 -0.61,-0.8 c -9,-5.46 -9.38,12.13 -2.41,17.34 a 21.87,21.87 0 0 1 3.18,2.59 1.45,1.45 0 0 1 -1.67,2.32 c -4.89,-2.38 -9.66,-5.13 -14.4,-6.73 a 1.45,1.45 0 0 0 -1.29,2.55 c 2.18,1.59 3.31,3.16 -0.08,5.84 0.11,-8 -11.86,4.31 -11.48,-1.15 a 1.47,1.47 0 0 0 -1.71,-1.6 c -7.38,1.42 -11.5,13.65 -15.25,8.11 a 1.45,1.45 0 0 1 0.68,-2.14 c 6.59,-2.62 -9.57,-6.9 -4.53,-2.95 0.17,1.43 3.83,9.62 0.92,9.11 -8.93,-3.95 -6.69,3.45 -8.15,6.46 a 1.43,1.43 0 0 1 -2.28,0.34 c -2.9,-2.86 -6.74,-3.9 -5.21,0.31 7.49,4.12 0.11,3.56 -3.27,0.91 a 1.41,1.41 0 0 1 -0.56,-1.19 c 0.25,-4.36 -8,-13.08 0.3,-7.84 3.44,2.39 11.57,2.85 12.88,-2.11 a 1.52,1.52 0 0 0 0,-0.56 c -1.1,-10.35 -29.88,-11.17 -25.37,-15.07 a 1.43,1.43 0 0 0 -0.48,-2.5 c -5.14,-1.39 -11,0.87 -16.57,0.74 a 1.47,1.47 0 0 0 -1.43,1.16 c -0.38,1.95 -4.35,1.76 -5.83,2.16 a 1.21,1.21 0 0 0 -0.47,0.26 c -4.31,3.59 -12.93,10.34 -13.81,14.57 -9.05,13.24 -22.8,14.16 -22.3,26.06 a 1.24,1.24 0 0 0 0,0.27 c 3.45,18.9 13.43,-11.52 17.7,12.38 v 0.08 c 0.35,1 -1.07,5.84 2.33,4.8 2.85,-2.12 7.79,-1.27 7.57,-5.78 0.16,-10.1 11.34,-6 4.33,-13.57 a 1.3,1.3 0 0 1 -0.18,-0.23 c -5,-8 3.18,-9.23 7.4,-12.39 a 1.47,1.47 0 0 0 0.5,-0.7 c 1.68,-5 3.53,-11.45 9.48,-7.25 a 1.43,1.43 0 0 1 0.34,2 c -4.52,6 -16.73,16.35 -3.68,22 a 1.43,1.43 0 0 1 0.21,0.12 c 1.48,0.71 15.28,-4.78 12.65,-0.49 6,-0.14 -1,4.35 -5.31,2.22 a 1.28,1.28 0 0 0 -0.47,-0.14 c -9.85,-1 -3.66,3.89 -10.75,3.88 -2.93,6.42 9.19,-5.51 5.33,5.69 -1.89,1.95 -3.73,-3.3 -4.51,-2.5 -4.26,1.26 -5.45,5.14 -1.17,9.75 a 1.45,1.45 0 0 1 -1,2.42 c -6.74,0.68 -13,-4.51 -18.79,0.84 a 1.46,1.46 0 0 1 -1.55,0.23 c -7.07,-2.9 -8.22,-0.59 -7.92,-2.43 -5.7,-3.15 -0.92,-1.43 2.19,-1.51 a 1.48,1.48 0 0 0 1.12,-0.55 c 3.38,-4.33 1,-3.87 -1.42,-3.8 -0.95,0 -1.92,-0.83 -1.62,-1.74 0.08,-0.24 -0.08,-0.49 -0.42,-0.74 a 1.48,1.48 0 0 1 -0.57,-1.77 c 0.89,-2.16 2,-4.57 -1.32,-2.62 -7.74,2.48 -3.31,9.81 -5.2,13.55 a 1.5,1.5 0 0 1 -1,0.78 c -19,4 -8.12,6.89 -21.7,11.41 a 1.41,1.41 0 0 0 -0.87,0.75 c -0.64,1.52 -1.73,1 -2.82,0.3 a 1.42,1.42 0 0 0 -2.13,1.24 c -0.09,1 -1.55,1.59 -3.06,1.29 -5.52,-3.71 -8,3.22 -1.88,3.48 a 1.46,1.46 0 0 1 1.15,0.56 26.93,26.93 0 0 1 2.93,6.82 1.5,1.5 0 0 1 0,0.84 c -5.06,18.94 -23.74,-15.16 -27.37,20.69 -0.88,9.54 26.78,13.49 26.48,0.23 a 1.45,1.45 0 0 1 0.41,-1.09 c 1.6,-1.57 5.8,-4.64 8.77,-5.45 a 1.25,1.25 0 0 0 0.72,-0.43 c 1.35,-1.87 0.1,-5.83 3.23,-5.81 2.9,0 5.79,3.72 8.64,0.79 11.14,-7.67 12,8.59 20.71,11.65 5.21,1 3.84,4.32 3.89,8 a 1.45,1.45 0 0 0 2.79,0.54 c 0.82,-2.18 0.54,-5.52 1.43,-6.38 a 1.36,1.36 0 0 0 0.15,-2 c -6.16,-5.68 -18.14,-15.33 -10.77,-17.78 1.33,-0.74 1.15,0.05 1.18,1 a 1.43,1.43 0 0 0 2.25,1.08 c 2.48,-1.53 2,5.54 5.09,6.11 8.22,0.68 8.16,9.55 10.07,15.24 a 1.44,1.44 0 0 0 0.59,0.74 c 2,1.35 3.62,3.51 3.19,5.1 a 1.56,1.56 0 0 0 0.17,1 c 4.57,8.5 4.55,0.9 7.94,0 a 1.43,1.43 0 0 0 0.68,-2.26 c -1.66,-2.08 -2.9,-2.17 -3.65,-4.32 a 1.44,1.44 0 0 1 1.63,-1.85 c 1.36,0.22 2.55,0.59 2.5,-0.59 a 1.49,1.49 0 0 1 0.54,-1.22 c 3.59,-2.81 9.55,3.81 6.67,8.21 a 1.4,1.4 0 0 0 -0.06,1.36 c 5.09,10.45 11.57,6.77 26.63,7.22 a 1.47,1.47 0 0 1 1.41,1.31 c 0.63,5.64 -1.64,18.12 -10.77,15.81 a 1.55,1.55 0 0 0 -0.71,0 c -10.62,2.83 -38.51,-16.6 -37.45,-3.12 1.34,5.73 -7.71,-0.69 -12.31,-1.76 a 1.46,1.46 0 0 1 -0.94,-0.81 c -3.34,-6.74 -13.81,-4.34 -16,-9.23 a 1.49,1.49 0 0 1 0.25,-1.57 c 11.25,-13.06 -21.48,-11.14 -29.81,-7.74 -5,2.54 -10.81,0.47 -15.8,-1.17 a 1.48,1.48 0 0 0 -1.23,0.16 c -18.35,11.61 -9.63,18.56 -23.78,22.51 a 1.41,1.41 0 0 0 -0.68,0.41 c -1.93,2.14 -13.46,15 -15.5,18.8 a 1.44,1.44 0 0 0 0.08,1.47 c 7,10.82 -5,16.1 -1.64,19.75 a 1.34,1.34 0 0 1 0.28,1.13 c -0.81,5.48 5.92,8.72 8.86,13.21 a 1.55,1.55 0 0 1 0.19,0.48 c 1.85,8.38 10,13.46 17.34,17.5 a 1.45,1.45 0 0 0 0.79,0.17 c 11.35,-0.8 21.46,-0.43 32.89,-2.56 a 1.56,1.56 0 0 1 0.57,0 c 4,0.86 3.47,6.58 7.6,7.31 3.87,0.1 7.92,-1.52 10.59,2.2 a 1.64,1.64 0 0 1 0.24,0.52 c 2.39,8.87 -9.85,9.15 4.14,23.59 a 1.42,1.42 0 0 1 0.29,0.43 c 16.08,36.15 -12.64,12.61 5.73,57 a 0.88,0.88 0 0 1 0.05,0.15 c 2.24,8.59 7.58,15 7.44,24.45 a 1.47,1.47 0 0 0 1.21,1.5 c 17.51,2.74 37.27,-3.1 44.12,-20.61 a 1.45,1.45 0 0 1 0.93,-0.86 c 6.74,-2 6.83,-2.31 6.24,-10.45 a 1.66,1.66 0 0 1 0.13,-0.73 c 5.21,-11.42 18.94,-5.18 20,-16.28 a 1.88,1.88 0 0 0 0,-0.41 c -7.34,-41.16 21.09,-31.32 40.2,-61.48 9.41,-13.26 -12.08,-5.08 -16.86,-5.67 -7.66,-0.3 -4.92,-11.12 -12.83,-14.28 -2.54,-2.89 -3.86,-1.15 -3.37,-2.74 l -18.78,-41.06 a 1.45,1.45 0 0 1 2.14,-1.79 c 9,6.23 8.32,9.09 17.4,27.48 a 1.38,1.38 0 0 0 0.43,0.5 c 4.75,3.62 8.16,17.18 10.15,23.54 a 1.45,1.45 0 0 0 1.57,1 c 21.68,-2.77 41.41,-9.15 49.09,-25.67 a 1.47,1.47 0 0 0 -0.32,-1.66 c -5,-5 -6.22,-2.87 -9.94,-8.76 a 1.46,1.46 0 0 0 -2.24,-0.28 c -11.58,11 -12.92,-4.37 -20.52,-11.89 a 1.51,1.51 0 0 1 -0.41,-0.75 c -2.78,-14.78 13.65,11.07 16.33,7.82 3,1.73 8.66,-1 9.83,2.76 6.88,7.26 21.39,0.12 29.32,6.25 3.26,2.76 3.33,5.55 6.44,6.59 a 1.44,1.44 0 0 1 0.85,2.1 c -2.94,4.42 9,8 8.14,2.26 2.16,-9.89 -0.35,15 5.51,25.33 2.45,3.51 3.87,22.79 8.78,16.35 5.65,-1.9 7.17,-9 7.24,-14.69 a 1.63,1.63 0 0 1 0.13,-0.58 C 772.62,619.48 803.1,601.06 800.42,637 Z M 647.51,541.84 c -4,6.55 -14,-2 -21.48,-3 a 1.54,1.54 0 0 0 -0.37,0 c -7.34,0.72 -21,5.66 -17.74,-5.39 a 1.4,1.4 0 0 1 0.32,-0.57 c 4.23,-4.65 6.16,-13.08 12.67,-9.09 a 1.45,1.45 0 0 1 -0.12,2.56 c -0.28,0.11 -0.41,0.28 -0.17,0.62 2.08,1 2.24,4.37 5.58,3.14 1.52,-1.94 10.54,-1.75 4.55,-3.2 -6.83,-0.48 0,-5.37 4.12,-5.76 a 1.45,1.45 0 0 1 1.16,2.47 c -8.33,8.23 10.43,8.56 11.67,17.25 a 1.37,1.37 0 0 1 -0.19,0.97 z m 36.65,19.55 c -9.36,1.42 -19.68,-6.76 -11.9,-12.64 a 1.46,1.46 0 0 0 0.2,-2.18 c -7.74,-7.87 -18,-19.92 2.29,-21.92 a 1.65,1.65 0 0 0 0.83,-0.37 c 3,-2.42 5.65,4.66 1.67,5.35 -2.93,-0.19 -2.92,2 -4.15,3.21 a 1.49,1.49 0 0 0 -0.05,1.95 c 1.78,2.27 2.79,3.84 5.29,4.86 a 1.45,1.45 0 0 1 0.87,1.65 c -0.66,3.18 0,2.94 1.09,5.65 a 1.55,1.55 0 0 1 0,1 c -0.6,1.88 0.42,2.35 1.55,2.56 a 1.42,1.42 0 0 1 1.17,1.3 c 0.17,2.57 1.9,5.06 2.39,7.88 a 1.46,1.46 0 0 1 -1.25,1.7 z" class="cls-3"></path><path id="path125" d="m 876.3,505.28 c 1.94,6.87 3.54,12.49 6.7,18.73 0.28,-2.84 0.25,-4.55 2.27,-1.39 -1.57,-2.61 -10.3,-19.35 -3.22,-12.11 -0.36,-2.51 -8.57,-12.51 -5.75,-5.23 z" class="cls-3"></path><path id="path127" d="m 491,441.83 c -4.57,0.65 6.27,3.28 6.83,3.81 4.11,0.13 10.82,-4.53 12.48,-3.88 1.09,-4.55 3.07,-2.17 -0.06,-4.64 2.73,-1.51 -1,-1.62 1.4,-2.82 -2.17,-0.58 -2.08,1.87 -2.88,-0.82 -2.61,1.79 -5.71,-0.32 -5.78,2.63 -0.19,-5.29 -4,2.05 -2.87,-2.09 -1.82,-2.15 -1.67,1.55 -2.13,2.58 -0.83,-1.28 -3.48,1.94 -1.51,-1.73 1.35,-3 -5.12,-5.81 -2.07,-1 -3,-3.18 -1.69,0.18 -4.56,1 -0.74,1.27 8.41,0.84 2.83,1.84 3.52,1.61 -2,0.13 -3.75,1.06 -0.77,1.31 6.42,1.57 2.07,4.06 z" class="cls-3"></path><path id="path129" d="m 507.25,494.5 c 6.92,-0.07 12.84,-6.38 10.7,-12.91 -4.38,-1.55 -5.61,-1.64 -6.32,2.26 0,0.38 -6.43,-1.39 -3.6,1.31 0.57,0.69 -3.16,1.66 -0.4,2.31 4.11,2.09 -8.92,5.09 -0.38,7.03 z" class="cls-3"></path><path id="path131" d="m 536.79,494.94 c 2.32,-4.48 -2.46,-1.1 -3.9,-5.65 -1.53,-2.89 -3,-8.75 -6.09,-9.79 -1.11,0.68 -1.1,-0.18 0.12,-0.93 l 3.58,-4 c 0.89,-2.35 -3.92,-1 -4.42,-1.83 -0.33,-0.29 2.5,-2.43 2.11,-2.9 -4.85,-1 -5.63,1.2 -7.69,4.57 0,-0.8 0.21,-2.72 -1.1,-1.69 0.89,0.87 -1.19,5.14 0.73,4.5 2.34,-0.69 -1.46,3.9 -0.73,3.77 1.54,-0.77 3.21,-0.28 1.39,1.31 -2,1.85 2,2 3.52,1.31 -1.73,1.75 2.48,4.09 0.24,5.55 -4.51,1.53 -3.73,-3 -3.73,4 -1,0.71 -4.13,0.2 -3,2.26 1.09,0.21 5.89,0.63 5.3,2.16 -2.77,-0.88 -7.11,2.1 -8,3.41 6.38,-0.73 14.72,-0.15 20.8,-2.08 -2.77,-1.35 -2.02,-2.32 0.87,-3.97 z" class="cls-3"></path><path id="path133" d="m 552.13,534.53 c 1.5,-1.88 1.86,-7 -1.43,-3.92 -1.47,0.68 -0.54,4.86 1.43,3.92 z" class="cls-3"></path><path id="path135" d="m 549.52,536.37 c -0.36,3 -3.29,7.93 2.1,6.36 3.51,-2.36 2.07,-10.32 -2.1,-6.36 z" class="cls-3"></path><path id="path137" d="m 569.88,548.54 c -0.43,-2.77 -4.18,1.17 -6,-0.66 -8.76,-3.8 4.51,11.59 6,0.66 z" class="cls-3"></path><path id="path139" d="m 597.28,558.92 c -7.35,0.6 -2.49,0.78 0.69,3 6.37,-0.55 3.47,-1.99 -0.69,-3 z" class="cls-3"></path><path id="path141" d="m 622,564.6 c 2.45,-0.12 3.74,-0.44 5,-2.28 a 0.36,0.36 0 0 0 -0.36,-0.56 C 624,562.29 617,562.78 622,564.6 Z" class="cls-3"></path><path id="path143" d="m 763.73,657.48 c -2.16,-8.4 -5.61,4.39 -4.09,7 3.91,3.23 7.64,-4.24 4.09,-7 z" class="cls-3"></path><path id="path145" d="m 815.62,702.79 c 2.62,2.18 5.08,-5.37 4.53,-8.63 -2.22,-1.1 -2,-1.76 -1.92,-4.09 -3.1,-0.57 -1.47,-2.43 -0.67,-3.19 -2.44,-2.73 -6.76,-9.18 -9.79,-12 -2.15,-0.91 -0.45,-6 -4.53,-4.71 -9.06,-5.49 2.43,8.54 3.24,12 4.18,9.83 -2.37,9.71 9.14,20.62 z" class="cls-3"></path><path id="path147" d="m 834.44,710.14 c -3.81,-1.42 -2.58,0.52 -3.05,-3.19 -2.13,-0.23 -2.85,-2.48 -4.18,-0.12 -5.29,0.85 -2.5,-2.76 -8.08,-3.17 -2,-0.33 -1.43,2.08 -3.26,2.38 1.7,1.21 4.22,3.54 7.44,3.35 2.1,1.58 6.44,1.48 8.71,2.13 1.8,2.53 1.61,0.08 2.42,-1.38 z" class="cls-3"></path><path id="path149" d="m 835.7,712.93 c 1.1,-0.15 1.57,-2.14 0.18,-2.43 -2.67,-0.08 -1.34,1.96 -0.18,2.43 z" class="cls-3"></path><path id="path151" d="m 839,713.86 c 3.13,0.52 7.44,-2.31 2,-2.31 1.85,2.37 -5.06,-1.05 -2,2.31 z" class="cls-3"></path><path id="path153" d="m 843.77,717.16 c 4.18,1.73 0,-4.95 -1.86,-2 0.47,0.84 1.88,0.84 1.86,2 z" class="cls-3"></path><path id="path155" d="m 851.41,712.14 c 0.75,-1.79 -2.31,1.49 -5.58,-0.49 -4.78,2.06 4.72,3 5.58,0.49 z" class="cls-3"></path><path id="path157" d="m 850.29,718.35 c 3.22,-1.94 4.79,-2.9 8.5,-4.9 -2.25,-1.51 -9.18,2.11 -8.5,4.9 z" class="cls-3"></path><path id="path159" d="m 869.67,700.77 c 3.64,-4.56 -6.32,-4.71 -3.85,-1.78 2.35,0.01 1.96,-0.43 3.85,1.78 z" class="cls-3"></path><path id="path161" d="m 859.49,691.2 c -3.14,-2 -9.54,4.82 -6.46,-2.54 a 1.45,1.45 0 0 1 1.46,-0.89 c 4.13,0.36 11.52,-0.52 9.13,-4.2 -1.87,1.88 -3.71,3.54 -6.93,1.84 -7.59,-3.06 -14.64,34.34 -4.71,11.56 0.72,4.37 -3.19,6.72 3.47,4.19 -1.45,-5.16 -2.92,-7.88 4.04,-9.96 z" class="cls-3"></path><path id="path163" d="m 863.93,697.85 c -0.77,-0.68 -3.07,-0.18 -3,1.27 0.82,2.74 3.55,0.29 3,-1.27 z" class="cls-3"></path><path id="path165" d="m 829.33,691.06 c 2.56,0.33 0.38,3.67 1,5 5.84,-0.1 -0.47,3.65 5.63,1.07 6.11,8.21 8.48,-8 13.19,-10.72 5.24,0.38 -4.92,-7.26 5.39,-13.3 -7,-8.9 -1.29,-6.07 -15,6 -3.51,0.22 -3.47,2.17 -5,4.69 -3.71,-5.97 -5.45,3.13 -5.21,7.26 z" class="cls-3"></path><path id="path167" d="m 869.61,661 c 0.61,-6 2,-12.79 -6.24,-16.69 0,-4 5.58,-14.06 -0.92,-12.92 -3.18,3.27 -3.48,18.52 0,20.52 -0.29,-10 5.8,-2.43 4.5,4.33 -0.43,0.7 -1.3,2.57 0.37,2.81 1.26,2.64 0.37,5.31 -3,3.82 -1.46,0.64 -8,12.43 -2.56,5.95 6.85,-7.76 0,4.94 6,3 -0.32,-5 5.94,-2.29 1.85,-10.82 z" class="cls-3"></path><path id="path169" d="m 863.92,653 c -0.89,0.23 -2.22,2.61 -2,3.64 2.08,2.41 5.62,-3.72 2,-3.64 z" class="cls-3"></path><path id="path171" d="m 865.71,656.21 c -1.66,0.64 -4.54,5 -0.9,5.87 0.24,-1.66 0.97,-3.21 0.9,-5.87 z" class="cls-3"></path><path id="path173" d="m 853.18,661.87 c 3.16,-0.92 6,-4.59 5.08,-8.45 -0.61,3.38 -7.43,8.25 -7.06,11.89 1.36,-3.03 1.36,-3.03 1.98,-3.44 z" class="cls-3"></path><path id="path175" d="m 863.6,616.19 c -0.36,-2.55 2.89,-7.28 0.14,-8.86 -3.89,1.87 -3.11,20.13 -0.14,8.86 z" class="cls-3"></path><path id="path177" d="m 892.93,562.28 c -1.63,-5.11 1.15,-13.09 -4.43,-19.09 -2.34,3.25 2.57,16 -0.84,19.33 -0.32,0.39 -1.11,1 -1.61,-1.69 -0.95,2.78 0.38,0.75 -0.31,6.26 -4.62,2 -13.44,9.43 -6.14,21 4,-5.42 -0.78,-10.51 1.32,-14.05 5.61,-1.68 5.08,-2.64 6,3.65 1.83,-2.12 3.13,-8.72 4,-7.88 1.4,5.56 -0.12,-0.26 1.59,-2.06 1.49,8.7 1.62,-1.86 0.42,-5.47 z" class="cls-3"></path><path id="path179" d="m 891.42,535.88 c 2.38,-0.86 -0.06,-4.34 -0.57,-5.73 -0.68,5.82 -5.64,-5 -6.49,-4.16 -1.61,3 4,8.38 0.3,9.8 -1.08,7.5 5.93,8.6 2.47,4.85 -2,-1.06 -1.29,-1.69 -0.22,-1.36 1.65,-3.58 2,2.23 3.79,1.2 0.22,-1.85 -0.48,-4.06 0.72,-4.6 z" class="cls-3"></path><path id="path181" d="m 765.5,374.12 c 0.84,2.12 6.28,5.27 7.38,3.79 0.47,-3.46 3.59,-7.73 -3.49,-10.14 -2.4,0.74 -1.47,1.36 -4.2,0.41 -0.93,-0.31 2.21,3.08 0.69,2.58 -6.24,-4.98 -3.88,1.4 -0.38,3.36 z" class="cls-3"></path><path id="path183" d="m 705.82,366.11 c 3.06,4.84 3.49,11.48 8.83,4.59 0.42,-2.65 -11.05,-7.63 -8.83,-4.59 z" class="cls-3"></path><path id="path185" d="m 686.25,359.27 c 5.78,9.28 3.51,5.33 13.28,10.46 10.81,3.64 2.18,-9.27 -3.31,-8.34 -3.89,-0.7 -9.45,-12.48 -9.97,-2.12 z" class="cls-3"></path><path id="path187" d="m 653,407.25 c 0,1.81 2.7,0.72 -0.25,4.33 -1.63,2 3.16,4.6 -0.76,4.84 -2.9,4.07 1.43,3.88 3.2,3.56 0.92,3.43 8.23,7.1 11.12,5.64 -3.95,-6.83 -8.87,-11.18 -5.68,-20.25 1.65,-5 8.73,-12.15 12.3,-13.54 1.26,-2.53 -5.87,-6.52 -5.67,-2 1.1,2.14 -5.79,2 -7.83,3.58 -0.8,0.89 -2.91,5.72 -5,6.61 -0.04,2.87 1.48,4.84 -1.43,7.23 z" class="cls-3"></path><path id="path189" d="m 636.2,373.49 c 5.12,-6 12.09,2.17 14.81,-4.13 -0.6,-4.21 4.92,-7.17 -1.4,-9.2 -8.42,-0.88 -7.24,3 -12.48,6.53 -15.62,-2.26 -11.98,4.98 -0.93,6.8 z" class="cls-3"></path><path id="path191" d="m 578.71,378.42 c 0.88,1.92 2.28,3.93 1.67,6.26 2.71,-0.07 -0.78,2.76 0.66,3.27 4.1,2 4.45,7 5.28,1.09 0.78,-1.57 3.74,-4.93 3.7,-7.15 0.07,-2.55 6.58,-1.56 2.14,-3.41 -1.76,-0.93 -4.21,-7.36 -5.5,-7.26 -3.14,4.23 -11.35,-2.38 -7.95,7.2 z" class="cls-3"></path><path id="path193" d="m 590.81,373.71 c 3.26,-1.11 0.42,3.28 3.67,2.64 3.41,2.23 8,-0.36 8.2,-4.85 -1.87,0.42 -5.17,-3.43 -7.18,-2.19 0.2,2.27 -1.27,1.53 -2.44,0.65 -3.06,-0.89 -5.43,3.46 -2.25,3.75 z" class="cls-3"></path><path id="path195" d="m 592,387.47 c 3.37,0.74 4.1,1.45 6.41,-1.76 0,-1.45 -2.72,-0.71 -2,-3.17 -5.66,-5.92 -2.03,1.82 -4.41,4.93 z" class="cls-3"></path><path id="path197" d="m 660.67,707.59 c -3.87,13 -20.95,6.09 -18,16.9 -4.75,7.91 -11.53,23.81 4.72,16.78 4.35,-9.45 20.5,-24.06 13.28,-33.68 z" class="cls-3"></path><path id="path199" d="m 880.68,720.5 c -10,16.29 -11,27.28 -14.88,11.12 3.61,-7.47 7.82,-6.5 -1.19,-10.9 0.16,0.79 -0.17,4.62 -1.87,2.28 -4,0.43 -8.48,14.24 -10.29,5 -9.55,5.7 -10.37,7.74 -18.24,15.25 -4.84,0.26 -17.71,6.67 -17,5.19 -8.8,11.93 -7.36,11.43 -12,24.51 -2.19,7.86 -13.4,12.2 -4,14 6.83,-0.22 24.75,-12.24 31.31,-5 0.67,4.51 -6.93,9.18 2.1,4.47 a 0.2830636,0.2830636 0 0 1 0.33,0.46 c -4.48,4.24 -0.86,3.07 -6.71,13.33 3.65,17 32.62,-22.36 42.55,-36.07 1.87,-5.22 10.21,-35.14 9.89,-43.64 z" class="cls-3"></path><path id="path201" d="m 820.58,818.5 c 2.47,-2.35 5.47,-4.39 7.22,-7.32 -1.93,0.74 -3,1.21 -3.3,-0.91 -1.87,2.73 -11.81,11.73 -3.92,8.23 z" class="cls-3"></path><path id="path203" d="m 891.85,701.4 c -3.86,-4.09 -7.68,-10.29 -12.47,-4.33 -5.64,4.89 1.66,-8.12 -3.31,-6.87 -5.09,1.88 -3,2.26 -2.74,5.18 0,0.08 -0.13,1.75 2.78,-0.4 0.72,0.45 0,2.8 -1.21,1.45 -0.31,1.05 -3.12,0.13 -2.19,1.39 1.51,1.23 -0.82,6.12 2.67,0.52 1.12,5.3 7.69,6.53 3.76,14.32 2.62,-0.37 0.32,3.34 3.67,3.49 2.36,0.07 1.82,-2.35 1.72,-2.47 1.41,-2.12 2.27,-0.75 3.28,-2.49 1.7,1.5 0.45,3.89 1,6.41 1.14,1.4 4.35,2.79 2.64,0.19 -0.45,-5.02 1.24,-10.17 0.4,-16.39 z" class="cls-3"></path><path id="path205" d="m 896.66,707.11 c 3,-2.78 6.26,-10.36 0,-2 0,-3.36 -0.55,1.58 -2.11,-0.63 a 1.71,1.71 0 0 0 2.11,2.63 z" class="cls-3"></path><path id="path207" d="m 861.71,791.9 c -4.22,9.18 -12.49,18.42 -18.36,26.41 4.65,-2.19 18.43,-21.86 18.36,-26.41 z" class="cls-3"></path><path id="path209" d="m 844.7,814.59 c -5.21,6 -13.27,11.29 -20.46,17.62 -2.48,7 18.24,-11.79 20.46,-17.62 z" class="cls-3"></path></g></svg> 