<?xml version="1.0" encoding="UTF-8"?><svg id="Layer_1" xmlns="http://www.w3.org/2000/svg" viewBox="0 0 1032 472"><defs><style>.cls-1{fill:#fff;stroke-width:0px;}</style></defs><path class="cls-1" d="m165.41,158.51c-10.67,0-19.63-2.36-26.89-7.09-7.26-4.73-12.68-10.99-16.27-18.79-3.5-7.88-5.25-16.51-5.25-25.88s1.75-17.95,5.25-25.75c3.59-7.88,9.01-14.19,16.27-18.92,7.26-4.73,16.18-7.09,26.76-7.09,12.07,0,21.86,2.85,29.38,8.54,7.61,5.6,12.64,13.31,15.09,23.12h-18.5c-1.84-5.34-4.98-9.46-9.44-12.35-4.37-2.98-9.93-4.47-16.66-4.47s-12.42,1.62-17.05,4.86c-4.63,3.24-8.13,7.66-10.49,13.27-2.27,5.52-3.41,11.69-3.41,18.52s1.22,13.44,3.67,19.05c2.45,5.6,6.08,10.03,10.89,13.27,4.81,3.24,10.67,4.86,17.58,4.86,8.57,0,15.35-2.32,20.33-6.96,5.07-4.64,7.65-11.21,7.74-19.7h-22.69v-14.06h39.22v53.86h-15.22v-12.35c-3.32,4.82-7.7,8.36-13.12,10.64-5.34,2.28-11.06,3.41-17.18,3.41Z"/><path class="cls-1" d="m271.98,158.51c-10.49,0-19.33-2.32-26.5-6.96-7.17-4.73-12.55-10.99-16.13-18.78-3.5-7.88-5.25-16.6-5.25-26.14s1.75-18.22,5.25-26.01c3.58-7.79,8.96-14.01,16.13-18.65,7.17-4.64,16-6.96,26.5-6.96s19.2,2.32,26.37,6.96c7.26,4.64,12.64,10.9,16.14,18.78,3.59,7.79,5.38,16.42,5.38,25.88s-1.79,18.26-5.38,26.14c-3.5,7.79-8.88,14.06-16.14,18.78-7.17,4.64-15.96,6.96-26.37,6.96Zm0-14.98c9.71,0,17.23-3.37,22.56-10.11,5.42-6.74,8.13-15.68,8.13-26.8s-2.71-19.92-8.13-26.67c-5.34-6.74-12.86-10.11-22.56-10.11-6.38,0-11.89,1.58-16.53,4.73-4.64,3.07-8.18,7.4-10.63,13-2.36,5.52-3.54,11.87-3.54,19.05s1.18,13.71,3.54,19.31c2.45,5.52,5.99,9.85,10.63,13,4.64,3.07,10.14,4.6,16.53,4.6Z"/><path class="cls-1" d="m377.19,156.81h-18.36l-35.81-100.23h17.32l27.68,82.23,27.68-82.23h17.32l-35.81,100.23Z"/><path class="cls-1" d="m489.51,156.81h-66.25V56.58h66.25v14.98h-49.59v27.59h44.08v14.84h-44.08v27.85h49.59v14.98Z"/><path class="cls-1" d="m579.52,156.81h-17.97l-16.53-40.85h-23.88v40.85h-16.66V56.58h41.32c9.79,0,17.49,2.45,23.09,7.36,5.68,4.82,8.53,12.13,8.53,21.94,0,6.57-1.44,12.17-4.33,16.81-2.8,4.55-6.82,8.01-12.07,10.38l18.5,43.74Zm-58.38-55.43h22.43c5.68,0,10.01-1.27,12.99-3.81,2.97-2.63,4.46-6.35,4.46-11.17s-1.53-8.49-4.59-11.03c-2.97-2.54-7.26-3.81-12.86-3.81h-22.43v29.82Z"/><path class="cls-1" d="m610.18,156.81h-16.66V56.58h20.2l42.37,77.24V56.58h16.53v100.23h-20.07l-42.37-77.24v77.24Z"/><path class="cls-1" d="m708.05,156.81h-16.66V56.58h16.66v100.23Z"/><path class="cls-1" d="m743.66,156.81h-16.66V56.58h20.2l42.37,77.24V56.58h16.53v100.23h-20.07l-42.37-77.24v77.24Z"/><path class="cls-1" d="m869.48,158.51c-10.67,0-19.63-2.36-26.89-7.09-7.26-4.73-12.68-10.99-16.27-18.79-3.5-7.88-5.25-16.51-5.25-25.88s1.75-17.95,5.25-25.75c3.58-7.88,9.01-14.19,16.27-18.92,7.26-4.73,16.18-7.09,26.76-7.09,12.07,0,21.86,2.85,29.39,8.54,7.61,5.6,12.64,13.31,15.08,23.12h-18.5c-1.84-5.34-4.98-9.46-9.45-12.35-4.37-2.98-9.93-4.47-16.66-4.47s-12.42,1.62-17.05,4.86-8.13,7.66-10.49,13.27c-2.27,5.52-3.41,11.69-3.41,18.52s1.22,13.44,3.67,19.05c2.45,5.6,6.08,10.03,10.89,13.27,4.81,3.24,10.67,4.86,17.58,4.86,8.57,0,15.35-2.32,20.33-6.96,5.07-4.64,7.65-11.21,7.74-19.7h-22.69v-14.06h39.22v53.86h-15.22v-12.35c-3.32,4.82-7.7,8.36-13.12,10.64-5.33,2.28-11.06,3.41-17.18,3.41Z"/><path class="cls-1" d="m297.62,286.05h-16.66v-85.25h-31.48v-14.97h79.89v14.97h-31.75v85.25Z"/><path class="cls-1" d="m356.76,286.05h-16.66v-100.23h16.66v42.56h45.26v-42.56h16.66v100.23h-16.66v-42.82h-45.26v42.82Z"/><path class="cls-1" d="m512.62,286.05h-17.97l-16.53-40.85h-23.88v40.85h-16.66v-100.23h41.32c9.79,0,17.49,2.45,23.09,7.36,5.68,4.82,8.53,12.13,8.53,21.94,0,6.57-1.44,12.17-4.33,16.81-2.8,4.55-6.82,8.01-12.07,10.38l18.5,43.74Zm-58.38-55.44h22.43c5.68,0,10.01-1.27,12.99-3.81,2.97-2.63,4.46-6.35,4.46-11.17s-1.53-8.5-4.59-11.04c-2.97-2.54-7.26-3.81-12.86-3.81h-22.43v29.82Z"/><path class="cls-1" d="m570.83,287.76c-10.49,0-19.33-2.32-26.5-6.96-7.17-4.73-12.55-10.99-16.14-18.78-3.5-7.88-5.25-16.6-5.25-26.14s1.75-18.22,5.25-26.01c3.59-7.79,8.96-14.01,16.14-18.65,7.17-4.64,16-6.96,26.5-6.96s19.2,2.32,26.37,6.96c7.26,4.64,12.64,10.9,16.14,18.78,3.59,7.79,5.38,16.42,5.38,25.88s-1.79,18.26-5.38,26.14c-3.5,7.79-8.88,14.05-16.14,18.78-7.17,4.64-15.96,6.96-26.37,6.96Zm0-14.98c9.71,0,17.23-3.37,22.56-10.12,5.42-6.74,8.13-15.67,8.13-26.8s-2.71-19.92-8.13-26.67c-5.34-6.74-12.86-10.11-22.56-10.11-6.39,0-11.89,1.58-16.53,4.73-4.64,3.07-8.18,7.4-10.63,13.01-2.36,5.52-3.54,11.87-3.54,19.05s1.18,13.71,3.54,19.31c2.45,5.52,5.99,9.85,10.63,13,4.64,3.07,10.14,4.6,16.53,4.6Z"/><path class="cls-1" d="m672.28,287.76c-13.29,0-23.17-3.28-29.65-9.85-6.47-6.65-9.71-15.85-9.71-27.59v-64.5h16.66v64.5c0,15.06,7.56,22.6,22.69,22.6s22.56-7.53,22.56-22.6v-64.5h16.66v64.5c0,11.74-3.24,20.93-9.71,27.59-6.38,6.57-16.22,9.85-29.52,9.85Z"/><path class="cls-1" d="m773.89,287.76c-10.67,0-19.63-2.36-26.89-7.09-7.26-4.73-12.68-10.99-16.27-18.79-3.5-7.88-5.25-16.51-5.25-25.88s1.75-17.95,5.25-25.75c3.59-7.88,9.01-14.19,16.27-18.92,7.26-4.73,16.18-7.09,26.76-7.09,12.07,0,21.86,2.85,29.38,8.54,7.61,5.6,12.64,13.31,15.09,23.12h-18.5c-1.84-5.34-4.98-9.46-9.45-12.35-4.37-2.98-9.93-4.47-16.66-4.47s-12.42,1.62-17.05,4.86c-4.64,3.24-8.13,7.66-10.49,13.27-2.27,5.52-3.41,11.69-3.41,18.52s1.22,13.44,3.67,19.05c2.45,5.61,6.08,10.03,10.89,13.27,4.81,3.24,10.67,4.86,17.58,4.86,8.57,0,15.35-2.32,20.33-6.96,5.07-4.64,7.65-11.21,7.74-19.7h-22.69v-14.06h39.22v53.86h-15.22v-12.35c-3.32,4.82-7.7,8.36-13.12,10.64-5.34,2.28-11.06,3.42-17.18,3.42Z"/><path class="cls-1" d="m852.91,286.05h-16.66v-100.23h16.66v42.56h45.26v-42.56h16.66v100.23h-16.66v-42.82h-45.26v42.82Z"/><path class="cls-1" d="m120.8,415.29v-100.23h28.73c16.79,0,29.65,4.34,38.57,13.01,8.92,8.67,13.38,21.06,13.38,37.18s-4.5,28.38-13.51,37.04c-8.92,8.67-21.78,13.01-38.57,13.01h-28.6Zm28.47-14.98c11.11,0,19.81-2.63,26.11-7.88,6.3-5.34,9.44-14.41,9.44-27.19,0-12.09-3.15-20.97-9.44-26.67-6.21-5.69-14.91-8.54-26.11-8.54h-11.81v70.28h11.81Z"/><path class="cls-1" d="m282.88,415.29h-66.25v-100.23h66.25v14.98h-49.59v27.59h44.08v14.84h-44.08v27.85h49.59v14.98Z"/><path class="cls-1" d="m335.39,417c-6.91,0-13.47-1.14-19.68-3.42-6.12-2.28-11.33-5.91-15.61-10.9-4.2-4.99-6.73-11.39-7.61-19.18h16.92c1.49,6.83,4.64,11.74,9.45,14.71,4.9,2.98,10.49,4.47,16.79,4.47s10.85-1.27,14.43-3.81c3.59-2.54,5.38-6.31,5.38-11.3,0-3.68-1.14-6.61-3.41-8.8-2.19-2.19-4.94-3.81-8.26-4.86-3.32-1.14-7.92-2.36-13.77-3.68-7.26-1.58-13.16-3.2-17.71-4.86-4.55-1.66-8.44-4.33-11.67-8.01-3.15-3.68-4.72-8.71-4.72-15.11,0-6.04,1.49-11.21,4.46-15.5,2.97-4.38,7.04-7.66,12.2-9.85,5.25-2.28,11.19-3.42,17.84-3.42,9.97,0,18.54,2.58,25.71,7.75,7.26,5.17,11.67,12.79,13.25,22.86h-16.66c-1.31-5.52-3.98-9.59-8-12.22-4.02-2.71-8.88-4.07-14.56-4.07s-9.71,1.14-12.86,3.42c-3.15,2.28-4.72,5.47-4.72,9.59,0,3.24,1.01,5.82,3.02,7.75,2.1,1.93,4.72,3.42,7.87,4.47,3.15.96,7.43,2.06,12.86,3.28,7.7,1.66,13.91,3.42,18.63,5.25,4.72,1.75,8.75,4.64,12.07,8.67,3.41,3.94,5.12,9.37,5.12,16.29,0,9.37-3.24,16.81-9.71,22.33-6.38,5.43-15.39,8.14-27.02,8.14Z"/><path class="cls-1" d="m403.93,415.29h-16.66v-100.23h16.66v100.23Z"/><path class="cls-1" d="m467.48,417c-10.67,0-19.63-2.36-26.89-7.09-7.26-4.73-12.68-10.99-16.27-18.78-3.5-7.88-5.25-16.51-5.25-25.88s1.75-17.95,5.25-25.75c3.58-7.88,9.01-14.19,16.27-18.92,7.26-4.73,16.18-7.09,26.76-7.09,12.07,0,21.86,2.85,29.38,8.54,7.61,5.61,12.64,13.31,15.09,23.12h-18.5c-1.84-5.34-4.99-9.46-9.45-12.35-4.37-2.98-9.93-4.47-16.66-4.47s-12.42,1.62-17.05,4.86c-4.64,3.24-8.13,7.66-10.49,13.27-2.27,5.52-3.41,11.69-3.41,18.52s1.22,13.44,3.67,19.05c2.45,5.6,6.08,10.03,10.89,13.27,4.81,3.24,10.67,4.86,17.58,4.86,8.57,0,15.35-2.32,20.33-6.96,5.07-4.64,7.65-11.21,7.74-19.7h-22.69v-14.06h39.22v53.86h-15.22v-12.35c-3.32,4.82-7.7,8.36-13.12,10.64-5.33,2.28-11.06,3.42-17.18,3.42Z"/><path class="cls-1" d="m546.51,415.29h-16.66v-100.23h20.2l42.37,77.24v-77.24h16.53v100.23h-20.07l-42.37-77.24v77.24Z"/></svg>